<?xml version="1.0" encoding="utf-8" standalone="no"?>
<!DOCTYPE svg PUBLIC "-//W3C//DTD SVG 1.1//EN"
  "http://www.w3.org/Graphics/SVG/1.1/DTD/svg11.dtd">
<!-- Created with matplotlib (http://matplotlib.org/) -->
<svg height="432pt" version="1.1" viewBox="0 0 576 432" width="576pt" xmlns="http://www.w3.org/2000/svg" xmlns:xlink="http://www.w3.org/1999/xlink">
 <defs>
  <style type="text/css">
*{stroke-linecap:butt;stroke-linejoin:round;}
  </style>
 </defs>
 <g id="figure_1">
  <g id="patch_1">
   <path d="
M0 432
L576 432
L576 0
L0 0
z
" style="fill:#ffffff;"/>
  </g>
  <g id="axes_1">
   <g id="patch_2">
    <path d="
M46.08 367.2
L570.24 367.2
L570.24 21.6
L46.08 21.6
z
" style="fill:#ffffff;"/>
   </g>
   <g id="line2d_1">
    <path clip-path="url(#pbec72b4b67)" d="
M47.8255 367.2
L159.534 367.139
L161.28 367.09
L163.025 366.859
L171.753 366.873
L196.189 366.676
L208.407 366.39
L213.643 366.082
L215.389 365.89
L217.134 365.574
L218.88 364.896
L220.625 360.519
L225.862 360.782
L232.843 360.72
L245.062 360.347
L264.262 359.53
L285.207 358.414
L302.662 357.266
L316.625 356.143
L328.843 354.944
L339.316 353.68
L348.043 352.383
L355.025 351.114
L360.261 349.973
L365.498 348.606
L368.989 347.526
L372.48 346.265
L375.971 344.761
L379.461 342.922
L381.207 341.832
L382.952 340.595
L384.698 339.171
L386.443 337.508
L388.189 335.528
L389.934 333.117
L391.68 330.09
L393.425 326.139
L395.171 320.711
L396.916 313.048
L398.661 306.193
L400.407 300.615
L402.152 296.03
L403.898 292.185
L405.643 288.893
L407.389 286.026
L409.134 283.49
L410.88 281.216
L412.625 279.155
L416.116 275.524
L419.607 272.381
L423.098 269.589
L426.589 267.061
L431.825 263.629
L437.061 260.515
L442.298 257.63
L449.28 254.044
L458.007 249.86
L468.48 245.139
L480.698 239.912
L494.661 234.187
L512.116 227.28
L533.061 219.238
L559.243 209.434
L571.461 204.927
L571.461 204.927" style="fill:none;stroke:#170000;stroke-linecap:square;stroke-width:3;"/>
   </g>
   <g id="line2d_2">
    <path clip-path="url(#pbec72b4b67)" d="
M47.8255 367.2
L131.607 367.124
L133.353 367.011
L140.334 367.025
L154.298 366.84
L157.789 366.679
L159.534 366.508
L161.28 366.078
L163.025 365.466
L166.516 365.587
L175.244 365.481
L187.462 365.108
L196.189 364.659
L203.171 364.079
L206.662 363.645
L210.153 363.025
L211.898 362.595
L213.643 362.03
L215.389 361.241
L217.134 360.023
L218.88 357.78
L220.625 352.45
L222.371 352.146
L227.607 352.204
L234.589 351.96
L245.062 351.296
L257.28 350.292
L272.989 348.732
L286.952 347.107
L299.171 345.465
L309.643 343.856
L320.116 342.008
L328.843 340.235
L335.825 338.621
L342.807 336.786
L348.043 335.23
L353.28 333.48
L358.516 331.49
L363.752 329.192
L367.243 327.446
L370.734 325.484
L374.225 323.257
L377.716 320.694
L381.207 317.702
L382.952 316.004
L384.698 314.143
L386.443 312.091
L388.189 309.814
L389.934 307.272
L391.68 304.414
L393.425 301.184
L395.171 297.522
L398.661 289.6
L400.407 286.165
L402.152 283.103
L403.898 280.356
L405.643 277.872
L407.389 275.609
L410.88 271.608
L414.371 268.142
L417.861 265.072
L421.352 262.301
L424.843 259.764
L430.08 256.292
L435.316 253.122
L440.552 250.178
L447.534 246.516
L456.261 242.248
L464.989 238.227
L475.461 233.635
L487.68 228.506
L503.389 222.166
L520.843 215.35
L543.534 206.735
L571.461 196.389
L571.461 196.389" style="fill:none;stroke:#2e0000;stroke-linecap:square;stroke-width:3;"/>
   </g>
   <g id="line2d_3">
    <path clip-path="url(#pbec72b4b67)" d="
M47.8255 367.2
L114.153 367.123
L119.389 367.074
L128.116 366.924
L131.607 366.643
L133.353 366.384
L136.844 366.446
L145.571 366.234
L150.807 365.952
L154.298 365.62
L156.044 365.363
L157.789 364.987
L159.534 364.368
L161.28 363.157
L163.025 362.521
L164.771 362.708
L168.262 362.742
L175.244 362.488
L182.225 362.026
L189.207 361.365
L194.443 360.694
L199.68 359.793
L203.171 358.997
L206.662 357.956
L208.407 357.301
L210.153 356.516
L211.898 355.555
L213.643 354.34
L215.389 352.74
L217.134 350.508
L218.88 347.164
L220.625 342.721
L222.371 342.113
L227.607 341.759
L234.589 341.227
L243.316 340.33
L253.789 339.019
L266.007 337.239
L278.225 335.207
L288.698 333.252
L299.171 331.073
L307.898 329.056
L316.625 326.821
L325.352 324.324
L332.334 322.097
L339.316 319.622
L344.552 317.571
L349.789 315.32
L355.025 312.834
L360.261 310.063
L365.498 306.946
L368.989 304.636
L372.48 302.106
L375.971 299.319
L379.461 296.227
L382.952 292.774
L386.443 288.895
L389.934 284.515
L393.425 279.57
L398.661 271.519
L400.407 269.118
L403.898 264.862
L407.389 261.189
L410.88 257.953
L414.371 255.051
L417.861 252.408
L423.098 248.813
L428.334 245.552
L433.571 242.54
L440.552 238.813
L447.534 235.331
L456.261 231.231
L466.734 226.579
L478.952 221.411
L492.916 215.743
L510.37 208.906
L531.316 200.945
L557.498 191.243
L571.461 186.15
L571.461 186.15" style="fill:none;stroke:#450000;stroke-linecap:square;stroke-width:3;"/>
   </g>
   <g id="line2d_4">
    <path clip-path="url(#pbec72b4b67)" d="
M47.8255 367.201
L101.934 367.114
L122.88 366.457
L126.371 366.194
L128.116 365.972
L129.862 365.63
L131.607 365.082
L133.353 364.777
L135.098 364.885
L138.589 364.791
L143.825 364.418
L147.316 364.018
L150.807 363.435
L154.298 362.53
L156.044 361.863
L157.789 360.947
L159.534 359.621
L161.28 357.742
L163.025 357.4
L164.771 357.633
L168.262 357.644
L173.498 357.293
L178.734 356.708
L183.971 355.923
L189.207 354.915
L194.443 353.62
L197.934 352.543
L201.425 351.23
L204.916 349.59
L206.662 348.604
L208.407 347.473
L210.153 346.159
L211.898 344.61
L213.643 342.754
L215.389 340.488
L217.134 337.673
L220.625 330.96
L222.371 330.176
L225.862 329.541
L241.571 327.254
L252.043 325.416
L262.516 323.337
L272.989 321.031
L283.462 318.49
L293.934 315.692
L302.662 313.139
L311.389 310.355
L320.116 307.302
L327.098 304.636
L334.08 301.736
L341.062 298.565
L346.298 295.98
L351.534 293.192
L356.771 290.17
L362.007 286.879
L367.243 283.278
L372.48 279.318
L375.971 276.45
L379.461 273.379
L382.952 270.088
L386.443 266.563
L389.934 262.799
L395.171 256.759
L398.661 252.799
L402.152 249.315
L405.643 246.23
L409.134 243.454
L412.625 240.92
L417.861 237.463
L423.098 234.318
L428.334 231.405
L435.316 227.791
L444.043 223.588
L452.77 219.635
L463.243 215.126
L475.461 210.094
L491.17 203.874
L510.37 196.528
L534.807 187.444
L564.479 176.668
L571.461 174.162
L571.461 174.162" style="fill:none;stroke:#5c0000;stroke-linecap:square;stroke-width:3;"/>
   </g>
   <g id="line2d_5">
    <path clip-path="url(#pbec72b4b67)" d="
M47.8255 367.201
L89.7163 367.138
L98.4436 366.921
L108.916 366.293
L112.407 365.742
L114.153 365.33
L119.389 365.114
L122.88 364.66
L126.371 363.862
L128.116 363.248
L129.862 362.422
L131.607 361.441
L133.353 361.268
L135.098 361.388
L138.589 361.122
L142.08 360.59
L145.571 359.816
L149.062 358.733
L150.807 358.033
L152.553 357.188
L154.298 356.156
L156.044 354.877
L157.789 353.276
L161.28 349.308
L163.025 349.239
L164.771 349.441
L168.262 349.336
L171.753 348.942
L175.244 348.371
L180.48 347.246
L185.716 345.8
L189.207 344.638
L192.698 343.286
L196.189 341.706
L199.68 339.842
L203.171 337.616
L206.662 334.911
L208.407 333.33
L210.153 331.559
L211.898 329.567
L213.643 327.318
L215.389 324.781
L218.88 319.01
L220.625 316.669
L222.371 315.797
L225.862 314.809
L234.589 312.92
L245.062 310.587
L255.534 308.018
L266.007 305.205
L276.48 302.142
L286.952 298.816
L295.68 295.826
L304.407 292.617
L313.134 289.163
L321.862 285.435
L328.843 282.227
L335.825 278.795
L342.807 275.112
L349.789 271.145
L356.771 266.859
L362.007 263.411
L367.243 259.743
L372.48 255.839
L377.716 251.686
L382.952 247.282
L389.934 241.059
L398.661 233.185
L402.152 230.452
L405.643 227.971
L410.88 224.607
L416.116 221.556
L421.352 218.736
L428.334 215.236
L437.061 211.164
L447.534 206.582
L459.752 201.52
L473.716 195.985
L491.17 189.311
L513.861 180.896
L541.789 170.792
L571.461 160.247
L571.461 160.247" style="fill:none;stroke:#730000;stroke-linecap:square;stroke-width:3;"/>
   </g>
   <g id="line2d_6">
    <path clip-path="url(#pbec72b4b67)" d="
M47.8255 367.201
L80.9891 367.106
L89.7163 366.726
L98.4436 365.792
L101.934 364.967
L105.425 364.685
L107.171 364.335
L108.916 363.839
L110.662 363.18
L112.407 362.382
L114.153 361.706
L115.898 361.73
L117.644 361.549
L119.389 361.171
L121.134 360.655
L122.88 359.993
L124.625 359.163
L126.371 358.133
L128.116 356.884
L129.862 355.471
L131.607 354.267
L135.098 354.327
L136.844 354.083
L140.334 353.204
L143.825 351.909
L145.571 351.097
L147.316 350.161
L149.062 349.082
L150.807 347.837
L152.553 346.4
L154.298 344.742
L156.044 342.841
L159.534 338.51
L161.28 336.819
L166.516 336.754
L170.007 336.201
L173.498 335.382
L176.989 334.357
L180.48 333.143
L183.971 331.741
L187.462 330.14
L190.953 328.317
L194.443 326.244
L197.934 323.879
L201.425 321.172
L204.916 318.056
L208.407 314.457
L211.898 310.306
L215.389 305.625
L218.88 300.895
L220.625 299.169
L222.371 298.264
L225.862 296.994
L232.843 294.917
L246.807 290.83
L257.28 287.539
L267.753 284.014
L278.225 280.245
L288.698 276.218
L299.171 271.913
L307.898 268.097
L316.625 264.054
L325.352 259.765
L334.08 255.206
L342.807 250.354
L349.789 246.244
L356.771 241.921
L363.752 237.376
L370.734 232.609
L379.461 226.362
L398.661 212.3
L402.152 210.099
L407.389 207.092
L412.625 204.337
L419.607 200.939
L428.334 196.994
L438.807 192.556
L451.025 187.644
L466.734 181.597
L485.934 174.461
L510.37 165.623
L543.534 153.88
L571.461 144.127
L571.461 144.127" style="fill:none;stroke:#8a0000;stroke-linecap:square;stroke-width:3;"/>
   </g>
   <g id="line2d_7">
    <path clip-path="url(#pbec72b4b67)" d="
M47.8255 367.201
L70.5163 367.124
L75.7527 366.872
L79.2436 366.555
L84.48 365.802
L86.2254 365.332
L89.7163 364.652
L93.2072 363.341
L94.9527 363.043
L96.6981 362.501
L101.934 359.813
L103.68 359.581
L105.425 358.994
L107.171 358.018
L108.916 356.789
L112.407 354.026
L114.153 353.226
L115.898 353.198
L117.644 352.645
L119.389 351.765
L121.134 350.645
L122.88 349.296
L124.625 347.721
L129.862 342.256
L131.607 341.111
L133.353 341.147
L135.098 340.963
L136.844 340.431
L138.589 339.702
L140.334 338.817
L142.08 337.785
L143.825 336.611
L145.571 335.29
L147.316 333.815
L149.062 332.18
L150.807 330.377
L154.298 326.284
L157.789 321.817
L159.534 319.816
L161.28 318.509
L164.771 318.161
L168.262 317.377
L171.753 316.256
L175.244 314.885
L178.734 313.293
L182.225 311.492
L185.716 309.48
L189.207 307.25
L192.698 304.787
L196.189 302.074
L199.68 299.094
L203.171 295.829
L206.662 292.274
L210.153 288.449
L217.134 280.545
L218.88 278.832
L220.625 277.505
L222.371 276.606
L225.862 275.146
L232.843 272.586
L250.298 266.282
L262.516 261.596
L272.989 257.36
L283.462 252.911
L293.934 248.244
L304.407 243.348
L314.88 238.215
L325.352 232.836
L335.825 227.204
L346.298 221.317
L356.771 215.185
L368.989 207.763
L395.171 191.672
L400.407 188.804
L405.643 186.206
L412.625 183.006
L421.352 179.279
L431.825 175.061
L445.789 169.702
L463.243 163.257
L487.68 154.499
L520.843 142.874
L567.97 126.612
L571.461 125.415
L571.461 125.415" style="fill:none;stroke:#a10000;stroke-linecap:square;stroke-width:3;"/>
   </g>
   <g id="line2d_8">
    <path clip-path="url(#pbec72b4b67)" d="
M47.8255 367.201
L61.7891 367.128
L65.28 366.882
L68.7709 366.356
L72.2618 365.445
L75.7527 364.238
L77.4981 363.359
L79.2436 362.638
L80.9891 361.508
L82.7345 360.666
L84.48 359.5
L86.2254 358.154
L87.9709 357.286
L89.7163 355.91
L91.4618 354.19
L93.2072 352.993
L94.9527 352.141
L96.6981 350.492
L98.4436 348.483
L100.189 346.707
L101.934 345.6
L103.68 344.902
L105.425 343.382
L107.171 341.369
L110.662 337.036
L112.407 335.345
L114.153 334.447
L115.898 334.004
L117.644 332.8
L119.389 331.184
L121.134 329.29
L124.625 324.924
L128.116 320.465
L129.862 318.702
L131.607 317.659
L133.353 317.387
L135.098 316.788
L136.844 315.844
L138.589 314.688
L140.334 313.36
L143.825 310.26
L147.316 306.639
L150.807 302.593
L156.044 296.24
L157.789 294.321
L159.534 292.722
L161.28 291.648
L164.771 290.66
L168.262 289.34
L171.753 287.742
L175.244 285.923
L178.734 283.911
L182.225 281.718
L187.462 278.107
L192.698 274.124
L197.934 269.791
L203.171 265.153
L215.389 254.024
L217.134 252.619
L218.88 251.358
L220.625 250.303
L224.116 248.653
L231.098 245.724
L253.789 236.373
L267.753 230.332
L281.716 224.036
L295.68 217.491
L309.643 210.708
L325.352 202.816
L342.807 193.772
L389.934 169.127
L396.916 165.769
L403.898 162.717
L412.625 159.179
L424.843 154.504
L440.552 148.75
L463.243 140.7
L496.407 129.196
L547.025 111.89
L571.461 103.589
L571.461 103.589" style="fill:none;stroke:#b80000;stroke-linecap:square;stroke-width:3;"/>
   </g>
   <g id="line2d_9">
    <path clip-path="url(#pbec72b4b67)" d="
M47.8255 367.201
L53.0618 367.166
L54.8073 367.006
L56.5527 366.607
L58.2982 365.892
L60.0436 364.833
L61.7891 363.427
L63.5345 361.743
L67.0254 357.672
L70.5163 352.959
L75.7527 345.252
L80.9891 337.195
L82.7345 334.928
L84.48 331.953
L86.2254 329.547
L87.9709 327.391
L89.7163 324.451
L91.4618 321.803
L94.9527 317.897
L98.4436 312.306
L100.189 310.156
L103.68 306.994
L105.425 304.615
L108.916 299.464
L110.662 297.271
L112.407 295.567
L115.898 293.194
L117.644 291.452
L121.134 287.257
L124.625 282.86
L126.371 280.811
L128.116 278.994
L129.862 277.505
L131.607 276.402
L133.353 275.588
L135.098 274.554
L136.844 273.303
L140.334 270.423
L143.825 267.207
L156.044 255.524
L157.789 254.144
L159.534 252.946
L161.28 251.97
L166.516 249.551
L171.753 246.771
L176.989 243.717
L183.971 239.323
L190.953 234.659
L211.898 220.377
L215.389 218.259
L218.88 216.353
L222.371 214.726
L232.843 210.276
L255.534 200.627
L276.48 191.451
L300.916 180.493
L367.243 150.588
L382.952 143.857
L395.171 138.865
L403.898 135.527
L417.861 130.453
L440.552 122.487
L477.207 109.89
L541.789 87.9642
L571.461 77.9404
L571.461 77.9404" style="fill:none;stroke:#cf0000;stroke-linecap:square;stroke-width:3;"/>
   </g>
   <g id="line2d_10">
    <path clip-path="url(#pbec72b4b67)" d="
M47.8255 252.214
L49.5709 247.736
L51.3164 246.87
L53.0618 243.986
L54.8073 242.587
L56.5527 241.463
L58.2982 240.111
L63.5345 236.744
L65.28 235.698
L67.0254 217.685
L68.7709 233.695
L74.0072 230.808
L84.48 225.444
L93.2072 221.248
L103.68 216.442
L117.644 210.319
L133.353 203.714
L150.807 196.631
L171.753 188.39
L196.189 179.041
L224.116 168.613
L255.534 157.119
L292.189 143.946
L335.825 128.505
L388.189 110.226
L447.534 89.7441
L522.589 64.0921
L571.461 47.4986
L571.461 47.4986" style="fill:none;stroke:#e60000;stroke-linecap:square;stroke-width:3;"/>
   </g>
   <g id="line2d_11">
    <path clip-path="url(#pbec72b4b67)" d="
M47.8255 367.201
L82.7345 367.109
L89.7163 366.917
L98.4436 366.342
L101.934 365.826
L107.171 365.42
L110.662 364.692
L114.153 363.707
L117.644 363.583
L121.134 363.008
L124.625 362.036
L126.371 361.357
L128.116 360.519
L131.607 358.593
L133.353 358.48
L135.098 358.55
L138.589 358.136
L142.08 357.393
L145.571 356.353
L149.062 354.951
L150.807 354.076
L152.553 353.055
L154.298 351.857
L156.044 350.45
L157.789 348.807
L161.28 345.188
L163.025 345.047
L164.771 345.181
L168.262 344.968
L171.753 344.468
L175.244 343.785
L180.48 342.474
L185.716 340.825
L189.207 339.521
L192.698 338.024
L196.189 336.303
L199.68 334.312
L203.171 331.985
L206.662 329.234
L208.407 327.663
L210.153 325.935
L211.898 324.028
L213.643 321.914
L215.389 319.57
L220.625 311.885
L222.371 311.029
L225.862 310.013
L236.334 307.579
L246.807 305.045
L257.28 302.285
L267.753 299.293
L278.225 296.063
L288.698 292.581
L297.425 289.469
L306.152 286.149
L314.88 282.597
L323.607 278.784
L330.589 275.525
L337.571 272.056
L344.552 268.353
L351.534 264.387
L358.516 260.125
L365.498 255.529
L370.734 251.838
L375.971 247.917
L381.207 243.753
L386.443 239.341
L393.425 233.122
L398.661 228.499
L402.152 225.786
L405.643 223.329
L410.88 220.004
L416.116 216.993
L421.352 214.211
L428.334 210.758
L437.061 206.737
L447.534 202.207
L459.752 197.196
L473.716 191.706
L491.17 185.079
L513.861 176.711
L543.534 166.028
L571.461 156.141
L571.461 156.141" style="fill:none;stroke:#008000;stroke-dasharray:6.000000,6.000000;stroke-dashoffset:0.0;stroke-width:4;"/>
   </g>
   <g id="matplotlib.axis_1">
    <g id="xtick_1">
     <g id="line2d_12">
      <path clip-path="url(#pbec72b4b67)" d="
M570.24 367.2
L570.24 21.6" style="fill:none;stroke:#000000;stroke-dasharray:1.000000,3.000000;stroke-dashoffset:0.0;stroke-width:0.5;"/>
     </g>
     <g id="line2d_13">
      <defs>
       <path d="
M0 0
L0 -4" id="m93b0483c22" style="stroke:#000000;stroke-width:0.5;"/>
      </defs>
      <g>
       <use style="stroke:#000000;stroke-width:0.5;" x="570.24" xlink:href="#m93b0483c22" y="367.2"/>
      </g>
     </g>
     <g id="line2d_14">
      <defs>
       <path d="
M0 0
L0 4" id="m741efc42ff" style="stroke:#000000;stroke-width:0.5;"/>
      </defs>
      <g>
       <use style="stroke:#000000;stroke-width:0.5;" x="570.24" xlink:href="#m741efc42ff" y="21.6"/>
      </g>
     </g>
     <g id="text_1">
      <!-- 3 -->
      <defs>
       <path d="
M40.5781 39.3125
Q47.6562 37.7969 51.625 33
Q55.6094 28.2188 55.6094 21.1875
Q55.6094 10.4062 48.1875 4.48438
Q40.7656 -1.42188 27.0938 -1.42188
Q22.5156 -1.42188 17.6562 -0.515625
Q12.7969 0.390625 7.625 2.20312
L7.625 11.7188
Q11.7188 9.32812 16.5938 8.10938
Q21.4844 6.89062 26.8125 6.89062
Q36.0781 6.89062 40.9375 10.5469
Q45.7969 14.2031 45.7969 21.1875
Q45.7969 27.6406 41.2812 31.2656
Q36.7656 34.9062 28.7188 34.9062
L20.2188 34.9062
L20.2188 43.0156
L29.1094 43.0156
Q36.375 43.0156 40.2344 45.9219
Q44.0938 48.8281 44.0938 54.2969
Q44.0938 59.9062 40.1094 62.9062
Q36.1406 65.9219 28.7188 65.9219
Q24.6562 65.9219 20.0156 65.0312
Q15.375 64.1562 9.8125 62.3125
L9.8125 71.0938
Q15.4375 72.6562 20.3438 73.4375
Q25.25 74.2188 29.5938 74.2188
Q40.8281 74.2188 47.3594 69.1094
Q53.9062 64.0156 53.9062 55.3281
Q53.9062 49.2656 50.4375 45.0938
Q46.9688 40.9219 40.5781 39.3125" id="BitstreamVeraSans-Roman-33"/>
      </defs>
      <g transform="translate(565.4415625 386.396875)scale(0.2 -0.2)">
       <use xlink:href="#BitstreamVeraSans-Roman-33"/>
      </g>
     </g>
    </g>
    <g id="xtick_2">
     <g id="line2d_15">
      <path clip-path="url(#pbec72b4b67)" d="
M395.171 367.2
L395.171 21.6" style="fill:none;stroke:#000000;stroke-dasharray:1.000000,3.000000;stroke-dashoffset:0.0;stroke-width:0.5;"/>
     </g>
     <g id="line2d_16">
      <g>
       <use style="stroke:#000000;stroke-width:0.5;" x="395.17056" xlink:href="#m93b0483c22" y="367.2"/>
      </g>
     </g>
     <g id="line2d_17">
      <g>
       <use style="stroke:#000000;stroke-width:0.5;" x="395.17056" xlink:href="#m741efc42ff" y="21.6"/>
      </g>
     </g>
     <g id="text_2">
      <!-- 2 -->
      <defs>
       <path d="
M19.1875 8.29688
L53.6094 8.29688
L53.6094 0
L7.32812 0
L7.32812 8.29688
Q12.9375 14.1094 22.625 23.8906
Q32.3281 33.6875 34.8125 36.5312
Q39.5469 41.8438 41.4219 45.5312
Q43.3125 49.2188 43.3125 52.7812
Q43.3125 58.5938 39.2344 62.25
Q35.1562 65.9219 28.6094 65.9219
Q23.9688 65.9219 18.8125 64.3125
Q13.6719 62.7031 7.8125 59.4219
L7.8125 69.3906
Q13.7656 71.7812 18.9375 73
Q24.125 74.2188 28.4219 74.2188
Q39.75 74.2188 46.4844 68.5469
Q53.2188 62.8906 53.2188 53.4219
Q53.2188 48.9219 51.5312 44.8906
Q49.8594 40.875 45.4062 35.4062
Q44.1875 33.9844 37.6406 27.2188
Q31.1094 20.4531 19.1875 8.29688" id="BitstreamVeraSans-Roman-32"/>
      </defs>
      <g transform="translate(390.542435 386.396875)scale(0.2 -0.2)">
       <use xlink:href="#BitstreamVeraSans-Roman-32"/>
      </g>
     </g>
    </g>
    <g id="xtick_3">
     <g id="line2d_18">
      <path clip-path="url(#pbec72b4b67)" d="
M220.625 367.2
L220.625 21.6" style="fill:none;stroke:#000000;stroke-dasharray:1.000000,3.000000;stroke-dashoffset:0.0;stroke-width:0.5;"/>
     </g>
     <g id="line2d_19">
      <g>
       <use style="stroke:#000000;stroke-width:0.5;" x="220.62528" xlink:href="#m93b0483c22" y="367.2"/>
      </g>
     </g>
     <g id="line2d_20">
      <g>
       <use style="stroke:#000000;stroke-width:0.5;" x="220.62528" xlink:href="#m741efc42ff" y="21.6"/>
      </g>
     </g>
     <g id="text_3">
      <!-- 1 -->
      <defs>
       <path d="
M12.4062 8.29688
L28.5156 8.29688
L28.5156 63.9219
L10.9844 60.4062
L10.9844 69.3906
L28.4219 72.9062
L38.2812 72.9062
L38.2812 8.29688
L54.3906 8.29688
L54.3906 0
L12.4062 0
z
" id="BitstreamVeraSans-Roman-31"/>
      </defs>
      <g transform="translate(216.284655 386.396875)scale(0.2 -0.2)">
       <use xlink:href="#BitstreamVeraSans-Roman-31"/>
      </g>
     </g>
    </g>
    <g id="xtick_4">
     <g id="line2d_21">
      <path clip-path="url(#pbec72b4b67)" d="
M162.444 367.2
L162.444 21.6" style="fill:none;stroke:#000000;stroke-dasharray:1.000000,3.000000;stroke-dashoffset:0.0;stroke-width:0.5;"/>
     </g>
     <g id="line2d_22">
      <g>
       <use style="stroke:#000000;stroke-width:0.5;" x="162.44352" xlink:href="#m93b0483c22" y="367.2"/>
      </g>
     </g>
     <g id="line2d_23">
      <g>
       <use style="stroke:#000000;stroke-width:0.5;" x="162.44352" xlink:href="#m741efc42ff" y="21.6"/>
      </g>
     </g>
     <g id="text_4">
      <!-- $\frac{2}{3}$ -->
      <defs>
       <path d="
M9.51562 7.71875
Q11.8594 4.29688 15.8125 2.64062
Q19.7812 0.984375 24.3125 0.984375
Q30.125 0.984375 32.5625 5.9375
Q35.0156 10.8906 35.0156 17.1875
Q35.0156 20.0156 34.5 22.8438
Q33.9844 25.6875 32.7656 28.125
Q31.5469 30.5625 29.4219 32.0312
Q27.2969 33.5 24.2188 33.5
L17.5781 33.5
Q16.7031 33.5 16.7031 34.4219
L16.7031 35.2969
Q16.7031 36.0781 17.5781 36.0781
L23.0938 36.5312
Q26.6094 36.5312 28.9219 39.1562
Q31.25 41.7969 32.3281 45.5781
Q33.4062 49.3594 33.4062 52.7812
Q33.4062 57.5625 31.1562 60.6406
Q28.9062 63.7188 24.3125 63.7188
Q20.5156 63.7188 17.0469 62.2812
Q13.5781 60.8438 11.5312 57.9062
Q11.7188 57.9531 11.8594 57.9844
Q12.0156 58.0156 12.2031 58.0156
Q14.4531 58.0156 15.9688 56.4531
Q17.4844 54.8906 17.4844 52.6875
Q17.4844 50.5312 15.9688 48.9688
Q14.4531 47.4062 12.2031 47.4062
Q10.0156 47.4062 8.45312 48.9688
Q6.89062 50.5312 6.89062 52.6875
Q6.89062 56.9844 9.46875 60.1562
Q12.0625 63.3281 16.1406 64.9688
Q20.2188 66.6094 24.3125 66.6094
Q27.3438 66.6094 30.7031 65.7031
Q34.0781 64.7969 36.8125 63.1094
Q39.5469 61.4219 41.2812 58.7812
Q43.0156 56.1562 43.0156 52.7812
Q43.0156 48.5781 41.1406 45.0156
Q39.2656 41.4531 35.9844 38.8594
Q32.7188 36.2812 28.8125 35.0156
Q33.1562 34.1875 37.0625 31.7344
Q40.9688 29.2969 43.3281 25.4844
Q45.7031 21.6875 45.7031 17.2812
Q45.7031 11.7656 42.6719 7.29688
Q39.6562 2.82812 34.7188 0.3125
Q29.7812 -2.20312 24.3125 -2.20312
Q19.625 -2.20312 14.9062 -0.40625
Q10.2031 1.375 7.20312 4.9375
Q4.20312 8.5 4.20312 13.4844
Q4.20312 15.9688 5.85938 17.625
Q7.51562 19.2812 10.0156 19.2812
Q11.625 19.2812 12.9688 18.5312
Q14.3125 17.7812 15.0625 16.4062
Q15.8281 15.0469 15.8281 13.4844
Q15.8281 11.0312 14.1094 9.375
Q12.4062 7.71875 10.0156 7.71875
z
" id="Cmr10-33"/>
       <path d="
M4.98438 0
L4.98438 2.6875
Q4.98438 2.9375 5.17188 3.21875
L20.7031 20.4062
Q24.2188 24.2188 26.4062 26.7969
Q28.6094 29.3906 30.75 32.7656
Q32.9062 36.1406 34.1562 39.625
Q35.4062 43.1094 35.4062 47.0156
Q35.4062 51.125 33.8906 54.8594
Q32.375 58.5938 29.375 60.8438
Q26.375 63.0938 22.125 63.0938
Q17.7812 63.0938 14.3125 60.4688
Q10.8438 57.8594 9.42188 53.7188
Q9.8125 53.8125 10.5 53.8125
Q12.75 53.8125 14.3281 52.2969
Q15.9219 50.7812 15.9219 48.3906
Q15.9219 46.0938 14.3281 44.5
Q12.75 42.9219 10.5 42.9219
Q8.15625 42.9219 6.5625 44.5469
Q4.98438 46.1875 4.98438 48.3906
Q4.98438 52.1562 6.39062 55.4375
Q7.8125 58.7344 10.4688 61.2969
Q13.1406 63.875 16.4844 65.2344
Q19.8281 66.6094 23.5781 66.6094
Q29.2969 66.6094 34.2188 64.1875
Q39.1562 61.7656 42.0312 57.3438
Q44.9219 52.9375 44.9219 47.0156
Q44.9219 42.6719 43.0156 38.7656
Q41.1094 34.8594 38.125 31.6562
Q35.1562 28.4688 30.5156 24.4062
Q25.875 20.3594 24.4219 19
L13.0938 8.10938
L22.7031 8.10938
Q29.7812 8.10938 34.5469 8.21875
Q39.3125 8.34375 39.5938 8.59375
Q40.7656 9.85938 42 17.8281
L44.9219 17.8281
L42.0938 0
z
" id="Cmr10-32"/>
      </defs>
      <g transform="translate(157.64352 388.2)scale(0.2 -0.2)">
       <use transform="translate(0.0 38.3734375)scale(0.7)" xlink:href="#Cmr10-32"/>
       <use transform="translate(0.0 -39.503125)scale(0.7)" xlink:href="#Cmr10-33"/>
       <path d="
M0 13.3734
L0 19.6234
L35 19.6234
L35 13.3734
L0 13.3734
z
"/>
      </g>
     </g>
    </g>
    <g id="xtick_5">
     <g id="line2d_24">
      <path clip-path="url(#pbec72b4b67)" d="
M133.353 367.2
L133.353 21.6" style="fill:none;stroke:#000000;stroke-dasharray:1.000000,3.000000;stroke-dashoffset:0.0;stroke-width:0.5;"/>
     </g>
     <g id="line2d_25">
      <g>
       <use style="stroke:#000000;stroke-width:0.5;" x="133.35264" xlink:href="#m93b0483c22" y="367.2"/>
      </g>
     </g>
     <g id="line2d_26">
      <g>
       <use style="stroke:#000000;stroke-width:0.5;" x="133.35264" xlink:href="#m741efc42ff" y="21.6"/>
      </g>
     </g>
     <g id="text_5">
      <!-- $\frac{2}{4}$ -->
      <defs>
       <path d="
M2.78125 16.5
L2.78125 20.0156
L33.6875 66.1094
Q34.0312 66.6094 34.7188 66.6094
L36.1875 66.6094
Q37.3125 66.6094 37.3125 65.4844
L37.3125 20.0156
L47.125 20.0156
L47.125 16.5
L37.3125 16.5
L37.3125 6.6875
Q37.3125 4.64062 40.2344 4.07812
Q43.1719 3.51562 47.0156 3.51562
L47.0156 0
L19.4844 0
L19.4844 3.51562
Q23.3438 3.51562 26.2656 4.07812
Q29.2031 4.64062 29.2031 6.6875
L29.2031 16.5
z

M6.10938 20.0156
L29.7812 20.0156
L29.7812 55.4219
z
" id="Cmr10-34"/>
      </defs>
      <g transform="translate(128.55264 388.2)scale(0.2 -0.2)">
       <use transform="translate(0.0 38.3734375)scale(0.7)" xlink:href="#Cmr10-32"/>
       <use transform="translate(0.0 -39.503125)scale(0.7)" xlink:href="#Cmr10-34"/>
       <path d="
M0 13.3734
L0 19.6234
L35 19.6234
L35 13.3734
L0 13.3734
z
"/>
      </g>
     </g>
    </g>
    <g id="xtick_6">
     <g id="line2d_27">
      <path clip-path="url(#pbec72b4b67)" d="
M115.898 367.2
L115.898 21.6" style="fill:none;stroke:#000000;stroke-dasharray:1.000000,3.000000;stroke-dashoffset:0.0;stroke-width:0.5;"/>
     </g>
     <g id="line2d_28">
      <g>
       <use style="stroke:#000000;stroke-width:0.5;" x="115.898112" xlink:href="#m93b0483c22" y="367.2"/>
      </g>
     </g>
     <g id="line2d_29">
      <g>
       <use style="stroke:#000000;stroke-width:0.5;" x="115.898112" xlink:href="#m741efc42ff" y="21.6"/>
      </g>
     </g>
     <g id="text_6">
      <!-- $\frac{2}{5}$ -->
      <defs>
       <path d="
M8.6875 11.375
Q9.71875 8.45312 11.8438 6.04688
Q13.9688 3.65625 16.875 2.3125
Q19.7812 0.984375 22.9062 0.984375
Q30.125 0.984375 32.8594 6.59375
Q35.5938 12.2031 35.5938 20.2188
Q35.5938 23.6875 35.4688 26.0469
Q35.3594 28.4219 34.8125 30.6094
Q33.8906 34.125 31.5625 36.7656
Q29.25 39.4062 25.875 39.4062
Q22.5156 39.4062 20.0938 38.375
Q17.6719 37.3594 16.1562 35.9844
Q14.6562 34.625 13.4844 33.1094
Q12.3125 31.5938 12.0156 31.5
L10.8906 31.5
Q10.6406 31.5 10.2656 31.8125
Q9.90625 32.125 9.90625 32.4219
L9.90625 65.8281
Q9.90625 66.0625 10.2188 66.3281
Q10.5469 66.6094 10.8906 66.6094
L11.1875 66.6094
Q17.9219 63.375 25.4844 63.375
Q32.9062 63.375 39.7969 66.6094
L40.0938 66.6094
Q40.4375 66.6094 40.7188 66.3594
Q41.0156 66.1094 41.0156 65.8281
L41.0156 64.8906
Q41.0156 64.4062 40.8281 64.4062
Q37.4062 59.8594 32.25 57.3125
Q27.0938 54.7812 21.5781 54.7812
Q17.5781 54.7812 13.375 55.9062
L13.375 37.0156
Q16.7031 39.7031 19.3125 40.8438
Q21.9219 42 25.9844 42
Q31.5 42 35.8594 38.8125
Q40.2344 35.6406 42.5781 30.5312
Q44.9219 25.4375 44.9219 20.125
Q44.9219 14.1094 41.9688 8.98438
Q39.0156 3.85938 33.9375 0.828125
Q28.8594 -2.20312 22.9062 -2.20312
Q17.9688 -2.20312 13.8438 0.328125
Q9.71875 2.875 7.34375 7.17188
Q4.98438 11.4688 4.98438 16.3125
Q4.98438 18.5625 6.4375 19.9688
Q7.90625 21.3906 10.1094 21.3906
Q12.3125 21.3906 13.7969 19.9375
Q15.2812 18.5 15.2812 16.3125
Q15.2812 14.1562 13.7969 12.6719
Q12.3125 11.1875 10.1094 11.1875
Q9.76562 11.1875 9.32812 11.25
Q8.89062 11.3281 8.6875 11.375" id="Cmr10-35"/>
      </defs>
      <g transform="translate(111.098112 388.2)scale(0.2 -0.2)">
       <use transform="translate(0.0 38.3734375)scale(0.7)" xlink:href="#Cmr10-32"/>
       <use transform="translate(0.0 -39.503125)scale(0.7)" xlink:href="#Cmr10-35"/>
       <path d="
M0 13.3734
L0 19.6234
L35 19.6234
L35 13.3734
L0 13.3734
z
"/>
      </g>
     </g>
    </g>
    <g id="xtick_7">
     <g id="line2d_30">
      <path clip-path="url(#pbec72b4b67)" d="
M104.262 367.2
L104.262 21.6" style="fill:none;stroke:#000000;stroke-dasharray:1.000000,3.000000;stroke-dashoffset:0.0;stroke-width:0.5;"/>
     </g>
     <g id="line2d_31">
      <g>
       <use style="stroke:#000000;stroke-width:0.5;" x="104.26176" xlink:href="#m93b0483c22" y="367.2"/>
      </g>
     </g>
     <g id="line2d_32">
      <g>
       <use style="stroke:#000000;stroke-width:0.5;" x="104.26176" xlink:href="#m741efc42ff" y="21.6"/>
      </g>
     </g>
    </g>
    <g id="xtick_8">
     <g id="line2d_33">
      <path clip-path="url(#pbec72b4b67)" d="
M95.9501 367.2
L95.9501 21.6" style="fill:none;stroke:#000000;stroke-dasharray:1.000000,3.000000;stroke-dashoffset:0.0;stroke-width:0.5;"/>
     </g>
     <g id="line2d_34">
      <g>
       <use style="stroke:#000000;stroke-width:0.5;" x="95.95008" xlink:href="#m93b0483c22" y="367.2"/>
      </g>
     </g>
     <g id="line2d_35">
      <g>
       <use style="stroke:#000000;stroke-width:0.5;" x="95.95008" xlink:href="#m741efc42ff" y="21.6"/>
      </g>
     </g>
    </g>
    <g id="xtick_9">
     <g id="line2d_36">
      <path clip-path="url(#pbec72b4b67)" d="
M89.7163 367.2
L89.7163 21.6" style="fill:none;stroke:#000000;stroke-dasharray:1.000000,3.000000;stroke-dashoffset:0.0;stroke-width:0.5;"/>
     </g>
     <g id="line2d_37">
      <g>
       <use style="stroke:#000000;stroke-width:0.5;" x="89.71632" xlink:href="#m93b0483c22" y="367.2"/>
      </g>
     </g>
     <g id="line2d_38">
      <g>
       <use style="stroke:#000000;stroke-width:0.5;" x="89.71632" xlink:href="#m741efc42ff" y="21.6"/>
      </g>
     </g>
    </g>
    <g id="text_7">
     <!-- Voltage ($\Delta$/e) -->
     <defs>
      <path id="BitstreamVeraSans-Roman-20"/>
      <path d="
M5.42188 0
Q4.59375 0 4.59375 0.78125
Q4.64062 0.875 4.65625 0.921875
Q4.6875 0.984375 4.6875 1.125
L39.1094 70.5156
Q39.5469 71.5781 40.9219 71.5781
L42.2812 71.5781
Q43.6562 71.5781 44.0938 70.5156
L78.5156 1.125
Q78.5625 1.03125 78.5781 0.953125
Q78.6094 0.875 78.6094 0.78125
Q78.6094 0 77.7812 0
z

M12.0156 8.01562
L64.7031 8.01562
L38.375 61.0781
z
" id="Cmr10-a2"/>
      <path d="
M8.01562 75.875
L15.8281 75.875
Q23.1406 64.3594 26.7812 53.3125
Q30.4219 42.2812 30.4219 31.3906
Q30.4219 20.4531 26.7812 9.375
Q23.1406 -1.70312 15.8281 -13.1875
L8.01562 -13.1875
Q14.5 -2 17.7031 9.0625
Q20.9062 20.125 20.9062 31.3906
Q20.9062 42.6719 17.7031 53.6562
Q14.5 64.6562 8.01562 75.875" id="BitstreamVeraSans-Roman-29"/>
      <path d="
M31 75.875
Q24.4688 64.6562 21.2812 53.6562
Q18.1094 42.6719 18.1094 31.3906
Q18.1094 20.125 21.3125 9.0625
Q24.5156 -2 31 -13.1875
L23.1875 -13.1875
Q15.875 -1.70312 12.2344 9.375
Q8.59375 20.4531 8.59375 31.3906
Q8.59375 42.2812 12.2031 53.3125
Q15.8281 64.3594 23.1875 75.875
z
" id="BitstreamVeraSans-Roman-28"/>
      <path d="
M30.6094 48.3906
Q23.3906 48.3906 19.1875 42.75
Q14.9844 37.1094 14.9844 27.2969
Q14.9844 17.4844 19.1562 11.8438
Q23.3438 6.20312 30.6094 6.20312
Q37.7969 6.20312 41.9844 11.8594
Q46.1875 17.5312 46.1875 27.2969
Q46.1875 37.0156 41.9844 42.7031
Q37.7969 48.3906 30.6094 48.3906
M30.6094 56
Q42.3281 56 49.0156 48.375
Q55.7188 40.7656 55.7188 27.2969
Q55.7188 13.875 49.0156 6.21875
Q42.3281 -1.42188 30.6094 -1.42188
Q18.8438 -1.42188 12.1719 6.21875
Q5.51562 13.875 5.51562 27.2969
Q5.51562 40.7656 12.1719 48.375
Q18.8438 56 30.6094 56" id="BitstreamVeraSans-Roman-6f"/>
      <path d="
M9.42188 75.9844
L18.4062 75.9844
L18.4062 0
L9.42188 0
z
" id="BitstreamVeraSans-Roman-6c"/>
      <path d="
M28.6094 0
L0.78125 72.9062
L11.0781 72.9062
L34.1875 11.5312
L57.3281 72.9062
L67.5781 72.9062
L39.7969 0
z
" id="BitstreamVeraSans-Roman-56"/>
      <path d="
M25.3906 72.9062
L33.6875 72.9062
L8.29688 -9.28125
L0 -9.28125
z
" id="BitstreamVeraSans-Roman-2f"/>
      <path d="
M56.2031 29.5938
L56.2031 25.2031
L14.8906 25.2031
Q15.4844 15.9219 20.4844 11.0625
Q25.4844 6.20312 34.4219 6.20312
Q39.5938 6.20312 44.4531 7.46875
Q49.3125 8.73438 54.1094 11.2812
L54.1094 2.78125
Q49.2656 0.734375 44.1875 -0.34375
Q39.1094 -1.42188 33.8906 -1.42188
Q20.7969 -1.42188 13.1562 6.1875
Q5.51562 13.8125 5.51562 26.8125
Q5.51562 40.2344 12.7656 48.1094
Q20.0156 56 32.3281 56
Q43.3594 56 49.7812 48.8906
Q56.2031 41.7969 56.2031 29.5938
M47.2188 32.2344
Q47.125 39.5938 43.0938 43.9844
Q39.0625 48.3906 32.4219 48.3906
Q24.9062 48.3906 20.3906 44.1406
Q15.875 39.8906 15.1875 32.1719
z
" id="BitstreamVeraSans-Roman-65"/>
      <path d="
M45.4062 27.9844
Q45.4062 37.75 41.375 43.1094
Q37.3594 48.4844 30.0781 48.4844
Q22.8594 48.4844 18.8281 43.1094
Q14.7969 37.75 14.7969 27.9844
Q14.7969 18.2656 18.8281 12.8906
Q22.8594 7.51562 30.0781 7.51562
Q37.3594 7.51562 41.375 12.8906
Q45.4062 18.2656 45.4062 27.9844
M54.3906 6.78125
Q54.3906 -7.17188 48.1875 -13.9844
Q42 -20.7969 29.2031 -20.7969
Q24.4688 -20.7969 20.2656 -20.0938
Q16.0625 -19.3906 12.1094 -17.9219
L12.1094 -9.1875
Q16.0625 -11.3281 19.9219 -12.3438
Q23.7812 -13.375 27.7812 -13.375
Q36.625 -13.375 41.0156 -8.76562
Q45.4062 -4.15625 45.4062 5.17188
L45.4062 9.625
Q42.625 4.78125 38.2812 2.39062
Q33.9375 0 27.875 0
Q17.8281 0 11.6719 7.65625
Q5.51562 15.3281 5.51562 27.9844
Q5.51562 40.6719 11.6719 48.3281
Q17.8281 56 27.875 56
Q33.9375 56 38.2812 53.6094
Q42.625 51.2188 45.4062 46.3906
L45.4062 54.6875
L54.3906 54.6875
z
" id="BitstreamVeraSans-Roman-67"/>
      <path d="
M34.2812 27.4844
Q23.3906 27.4844 19.1875 25
Q14.9844 22.5156 14.9844 16.5
Q14.9844 11.7188 18.1406 8.90625
Q21.2969 6.10938 26.7031 6.10938
Q34.1875 6.10938 38.7031 11.4062
Q43.2188 16.7031 43.2188 25.4844
L43.2188 27.4844
z

M52.2031 31.2031
L52.2031 0
L43.2188 0
L43.2188 8.29688
Q40.1406 3.32812 35.5469 0.953125
Q30.9531 -1.42188 24.3125 -1.42188
Q15.9219 -1.42188 10.9531 3.29688
Q6 8.01562 6 15.9219
Q6 25.1406 12.1719 29.8281
Q18.3594 34.5156 30.6094 34.5156
L43.2188 34.5156
L43.2188 35.4062
Q43.2188 41.6094 39.1406 45
Q35.0625 48.3906 27.6875 48.3906
Q23 48.3906 18.5469 47.2656
Q14.1094 46.1406 10.0156 43.8906
L10.0156 52.2031
Q14.9375 54.1094 19.5781 55.0469
Q24.2188 56 28.6094 56
Q40.4844 56 46.3438 49.8438
Q52.2031 43.7031 52.2031 31.2031" id="BitstreamVeraSans-Roman-61"/>
      <path d="
M18.3125 70.2188
L18.3125 54.6875
L36.8125 54.6875
L36.8125 47.7031
L18.3125 47.7031
L18.3125 18.0156
Q18.3125 11.3281 20.1406 9.42188
Q21.9688 7.51562 27.5938 7.51562
L36.8125 7.51562
L36.8125 0
L27.5938 0
Q17.1875 0 13.2344 3.875
Q9.28125 7.76562 9.28125 18.0156
L9.28125 47.7031
L2.6875 47.7031
L2.6875 54.6875
L9.28125 54.6875
L9.28125 70.2188
z
" id="BitstreamVeraSans-Roman-74"/>
     </defs>
     <g transform="translate(240.96 416.8)scale(0.2 -0.2)">
      <use transform="translate(0.0 0.015625)" xlink:href="#BitstreamVeraSans-Roman-56"/>
      <use transform="translate(68.408203125 0.015625)" xlink:href="#BitstreamVeraSans-Roman-6f"/>
      <use transform="translate(129.58984375 0.015625)" xlink:href="#BitstreamVeraSans-Roman-6c"/>
      <use transform="translate(157.373046875 0.015625)" xlink:href="#BitstreamVeraSans-Roman-74"/>
      <use transform="translate(196.58203125 0.015625)" xlink:href="#BitstreamVeraSans-Roman-61"/>
      <use transform="translate(257.861328125 0.015625)" xlink:href="#BitstreamVeraSans-Roman-67"/>
      <use transform="translate(321.337890625 0.015625)" xlink:href="#BitstreamVeraSans-Roman-65"/>
      <use transform="translate(382.861328125 0.015625)" xlink:href="#BitstreamVeraSans-Roman-20"/>
      <use transform="translate(414.6484375 0.015625)" xlink:href="#BitstreamVeraSans-Roman-28"/>
      <use transform="translate(453.662109375 0.015625)" xlink:href="#Cmr10-a2"/>
      <use transform="translate(536.962890625 0.015625)" xlink:href="#BitstreamVeraSans-Roman-2f"/>
      <use transform="translate(570.654296875 0.015625)" xlink:href="#BitstreamVeraSans-Roman-65"/>
      <use transform="translate(632.177734375 0.015625)" xlink:href="#BitstreamVeraSans-Roman-29"/>
     </g>
    </g>
   </g>
   <g id="matplotlib.axis_2">
    <g id="ytick_1">
     <g id="line2d_39">
      <path clip-path="url(#pbec72b4b67)" d="
M46.08 367.2
L570.24 367.2" style="fill:none;stroke:#000000;stroke-dasharray:1.000000,3.000000;stroke-dashoffset:0.0;stroke-width:0.5;"/>
     </g>
     <g id="line2d_40">
      <defs>
       <path d="
M0 0
L4 0" id="m728421d6d4" style="stroke:#000000;stroke-width:0.5;"/>
      </defs>
      <g>
       <use style="stroke:#000000;stroke-width:0.5;" x="46.08" xlink:href="#m728421d6d4" y="367.2"/>
      </g>
     </g>
     <g id="line2d_41">
      <defs>
       <path d="
M0 0
L-4 0" id="mcb0005524f" style="stroke:#000000;stroke-width:0.5;"/>
      </defs>
      <g>
       <use style="stroke:#000000;stroke-width:0.5;" x="570.24" xlink:href="#mcb0005524f" y="367.2"/>
      </g>
     </g>
     <g id="text_8">
      <!-- 0 -->
      <defs>
       <path d="
M31.7812 66.4062
Q24.1719 66.4062 20.3281 58.9062
Q16.5 51.4219 16.5 36.375
Q16.5 21.3906 20.3281 13.8906
Q24.1719 6.39062 31.7812 6.39062
Q39.4531 6.39062 43.2812 13.8906
Q47.125 21.3906 47.125 36.375
Q47.125 51.4219 43.2812 58.9062
Q39.4531 66.4062 31.7812 66.4062
M31.7812 74.2188
Q44.0469 74.2188 50.5156 64.5156
Q56.9844 54.8281 56.9844 36.375
Q56.9844 17.9688 50.5156 8.26562
Q44.0469 -1.42188 31.7812 -1.42188
Q19.5312 -1.42188 13.0625 8.26562
Q6.59375 17.9688 6.59375 36.375
Q6.59375 54.8281 13.0625 64.5156
Q19.5312 74.2188 31.7812 74.2188" id="BitstreamVeraSans-Roman-30"/>
      </defs>
      <g transform="translate(32.001875 372.71875)scale(0.2 -0.2)">
       <use xlink:href="#BitstreamVeraSans-Roman-30"/>
      </g>
     </g>
    </g>
    <g id="ytick_2">
     <g id="line2d_42">
      <path clip-path="url(#pbec72b4b67)" d="
M46.08 309.6
L570.24 309.6" style="fill:none;stroke:#000000;stroke-dasharray:1.000000,3.000000;stroke-dashoffset:0.0;stroke-width:0.5;"/>
     </g>
     <g id="line2d_43">
      <g>
       <use style="stroke:#000000;stroke-width:0.5;" x="46.08" xlink:href="#m728421d6d4" y="309.6"/>
      </g>
     </g>
     <g id="line2d_44">
      <g>
       <use style="stroke:#000000;stroke-width:0.5;" x="570.24" xlink:href="#mcb0005524f" y="309.6"/>
      </g>
     </g>
     <g id="text_9">
      <!-- 1 -->
      <g transform="translate(33.39875 315.11875)scale(0.2 -0.2)">
       <use xlink:href="#BitstreamVeraSans-Roman-31"/>
      </g>
     </g>
    </g>
    <g id="ytick_3">
     <g id="line2d_45">
      <path clip-path="url(#pbec72b4b67)" d="
M46.08 252
L570.24 252" style="fill:none;stroke:#000000;stroke-dasharray:1.000000,3.000000;stroke-dashoffset:0.0;stroke-width:0.5;"/>
     </g>
     <g id="line2d_46">
      <g>
       <use style="stroke:#000000;stroke-width:0.5;" x="46.08" xlink:href="#m728421d6d4" y="252.0"/>
      </g>
     </g>
     <g id="line2d_47">
      <g>
       <use style="stroke:#000000;stroke-width:0.5;" x="570.24" xlink:href="#mcb0005524f" y="252.0"/>
      </g>
     </g>
     <g id="text_10">
      <!-- 2 -->
      <g transform="translate(32.82375 257.51875)scale(0.2 -0.2)">
       <use xlink:href="#BitstreamVeraSans-Roman-32"/>
      </g>
     </g>
    </g>
    <g id="ytick_4">
     <g id="line2d_48">
      <path clip-path="url(#pbec72b4b67)" d="
M46.08 194.4
L570.24 194.4" style="fill:none;stroke:#000000;stroke-dasharray:1.000000,3.000000;stroke-dashoffset:0.0;stroke-width:0.5;"/>
     </g>
     <g id="line2d_49">
      <g>
       <use style="stroke:#000000;stroke-width:0.5;" x="46.08" xlink:href="#m728421d6d4" y="194.4"/>
      </g>
     </g>
     <g id="line2d_50">
      <g>
       <use style="stroke:#000000;stroke-width:0.5;" x="570.24" xlink:href="#mcb0005524f" y="194.4"/>
      </g>
     </g>
     <g id="text_11">
      <!-- 3 -->
      <g transform="translate(32.483125 199.91875)scale(0.2 -0.2)">
       <use xlink:href="#BitstreamVeraSans-Roman-33"/>
      </g>
     </g>
    </g>
    <g id="ytick_5">
     <g id="line2d_51">
      <path clip-path="url(#pbec72b4b67)" d="
M46.08 136.8
L570.24 136.8" style="fill:none;stroke:#000000;stroke-dasharray:1.000000,3.000000;stroke-dashoffset:0.0;stroke-width:0.5;"/>
     </g>
     <g id="line2d_52">
      <g>
       <use style="stroke:#000000;stroke-width:0.5;" x="46.08" xlink:href="#m728421d6d4" y="136.8"/>
      </g>
     </g>
     <g id="line2d_53">
      <g>
       <use style="stroke:#000000;stroke-width:0.5;" x="570.24" xlink:href="#mcb0005524f" y="136.8"/>
      </g>
     </g>
     <g id="text_12">
      <!-- 4 -->
      <defs>
       <path d="
M37.7969 64.3125
L12.8906 25.3906
L37.7969 25.3906
z

M35.2031 72.9062
L47.6094 72.9062
L47.6094 25.3906
L58.0156 25.3906
L58.0156 17.1875
L47.6094 17.1875
L47.6094 0
L37.7969 0
L37.7969 17.1875
L4.89062 17.1875
L4.89062 26.7031
z
" id="BitstreamVeraSans-Roman-34"/>
      </defs>
      <g transform="translate(31.455 142.31875)scale(0.2 -0.2)">
       <use xlink:href="#BitstreamVeraSans-Roman-34"/>
      </g>
     </g>
    </g>
    <g id="ytick_6">
     <g id="line2d_54">
      <path clip-path="url(#pbec72b4b67)" d="
M46.08 79.2
L570.24 79.2" style="fill:none;stroke:#000000;stroke-dasharray:1.000000,3.000000;stroke-dashoffset:0.0;stroke-width:0.5;"/>
     </g>
     <g id="line2d_55">
      <g>
       <use style="stroke:#000000;stroke-width:0.5;" x="46.08" xlink:href="#m728421d6d4" y="79.2"/>
      </g>
     </g>
     <g id="line2d_56">
      <g>
       <use style="stroke:#000000;stroke-width:0.5;" x="570.24" xlink:href="#mcb0005524f" y="79.2"/>
      </g>
     </g>
     <g id="text_13">
      <!-- 5 -->
      <defs>
       <path d="
M10.7969 72.9062
L49.5156 72.9062
L49.5156 64.5938
L19.8281 64.5938
L19.8281 46.7344
Q21.9688 47.4688 24.1094 47.8281
Q26.2656 48.1875 28.4219 48.1875
Q40.625 48.1875 47.75 41.5
Q54.8906 34.8125 54.8906 23.3906
Q54.8906 11.625 47.5625 5.09375
Q40.2344 -1.42188 26.9062 -1.42188
Q22.3125 -1.42188 17.5469 -0.640625
Q12.7969 0.140625 7.71875 1.70312
L7.71875 11.625
Q12.1094 9.23438 16.7969 8.0625
Q21.4844 6.89062 26.7031 6.89062
Q35.1562 6.89062 40.0781 11.3281
Q45.0156 15.7656 45.0156 23.3906
Q45.0156 31 40.0781 35.4375
Q35.1562 39.8906 26.7031 39.8906
Q22.75 39.8906 18.8125 39.0156
Q14.8906 38.1406 10.7969 36.2812
z
" id="BitstreamVeraSans-Roman-35"/>
      </defs>
      <g transform="translate(32.645625 84.71875)scale(0.2 -0.2)">
       <use xlink:href="#BitstreamVeraSans-Roman-35"/>
      </g>
     </g>
    </g>
    <g id="ytick_7">
     <g id="line2d_57">
      <path clip-path="url(#pbec72b4b67)" d="
M46.08 21.6
L570.24 21.6" style="fill:none;stroke:#000000;stroke-dasharray:1.000000,3.000000;stroke-dashoffset:0.0;stroke-width:0.5;"/>
     </g>
     <g id="line2d_58">
      <g>
       <use style="stroke:#000000;stroke-width:0.5;" x="46.08" xlink:href="#m728421d6d4" y="21.6"/>
      </g>
     </g>
     <g id="line2d_59">
      <g>
       <use style="stroke:#000000;stroke-width:0.5;" x="570.24" xlink:href="#mcb0005524f" y="21.6"/>
      </g>
     </g>
     <g id="text_14">
      <!-- 6 -->
      <defs>
       <path d="
M33.0156 40.375
Q26.375 40.375 22.4844 35.8281
Q18.6094 31.2969 18.6094 23.3906
Q18.6094 15.5312 22.4844 10.9531
Q26.375 6.39062 33.0156 6.39062
Q39.6562 6.39062 43.5312 10.9531
Q47.4062 15.5312 47.4062 23.3906
Q47.4062 31.2969 43.5312 35.8281
Q39.6562 40.375 33.0156 40.375
M52.5938 71.2969
L52.5938 62.3125
Q48.875 64.0625 45.0938 64.9844
Q41.3125 65.9219 37.5938 65.9219
Q27.8281 65.9219 22.6719 59.3281
Q17.5312 52.7344 16.7969 39.4062
Q19.6719 43.6562 24.0156 45.9219
Q28.375 48.1875 33.5938 48.1875
Q44.5781 48.1875 50.9531 41.5156
Q57.3281 34.8594 57.3281 23.3906
Q57.3281 12.1562 50.6875 5.35938
Q44.0469 -1.42188 33.0156 -1.42188
Q20.3594 -1.42188 13.6719 8.26562
Q6.98438 17.9688 6.98438 36.375
Q6.98438 53.6562 15.1875 63.9375
Q23.3906 74.2188 37.2031 74.2188
Q40.9219 74.2188 44.7031 73.4844
Q48.4844 72.75 52.5938 71.2969" id="BitstreamVeraSans-Roman-36"/>
      </defs>
      <g transform="translate(32.01125 27.11875)scale(0.2 -0.2)">
       <use xlink:href="#BitstreamVeraSans-Roman-36"/>
      </g>
     </g>
    </g>
    <g id="text_15">
     <!-- Current (2e$\Delta$/G$\hbar$) -->
     <defs>
      <path d="
M46.5 11.7969
L47.7969 10.5
Q43.2031 4 40.0938 1.54688
Q37 -0.90625 33.2031 -0.90625
Q31.2031 -0.90625 30 0.25
Q28.7969 1.40625 28.7969 3.29688
Q28.7969 5 30.7969 12.5
L36.2969 33.2031
Q37 36 37 36.5
Q37 39 34.2031 39
Q31.5 39 27.25 35
Q23 31 19 25
Q15.9062 20.2031 14.0938 15.6406
Q12.2969 11.0938 9.40625 0
L1.90625 0
L15.0938 50
L8.79688 50
L10.2969 55.4062
L16.5 55.4062
Q17.7969 60.4062 17.7969 61.5938
Q17.7969 62.7969 16.5 63.4375
Q15.2031 64.0938 13.7031 64.0938
L11 64.0938
L11 65.5938
Q18.5938 66.5 26.7031 68.2969
L27.4062 67.7031
L24.0938 55.4062
L40 55.4062
L38.5 50
L22.5938 50
L15.2969 23
Q28.2969 44.0938 38.2969 44.0938
Q41.5938 44.0938 43.1875 42.25
Q44.7969 40.4062 44.7969 37.4062
Q44.7969 33.0938 40 18.0938
Q36.7031 8 36.7031 5.59375
Q36.7031 3.79688 38.2969 3.79688
Q39.5 3.79688 40.9531 5.25
Q42.4062 6.70312 46.5 11.7969" id="STIXGeneral-Italic-127"/>
      <path d="
M54.8906 33.0156
L54.8906 0
L45.9062 0
L45.9062 32.7188
Q45.9062 40.4844 42.875 44.3281
Q39.8438 48.1875 33.7969 48.1875
Q26.5156 48.1875 22.3125 43.5469
Q18.1094 38.9219 18.1094 30.9062
L18.1094 0
L9.07812 0
L9.07812 54.6875
L18.1094 54.6875
L18.1094 46.1875
Q21.3438 51.125 25.7031 53.5625
Q30.0781 56 35.7969 56
Q45.2188 56 50.0469 50.1719
Q54.8906 44.3438 54.8906 33.0156" id="BitstreamVeraSans-Roman-6e"/>
      <path d="
M59.5156 10.4062
L59.5156 29.9844
L43.4062 29.9844
L43.4062 38.0938
L69.2812 38.0938
L69.2812 6.78125
Q63.5781 2.73438 56.6875 0.65625
Q49.8125 -1.42188 42 -1.42188
Q24.9062 -1.42188 15.25 8.5625
Q5.60938 18.5625 5.60938 36.375
Q5.60938 54.25 15.25 64.2344
Q24.9062 74.2188 42 74.2188
Q49.125 74.2188 55.5469 72.4531
Q61.9688 70.7031 67.3906 67.2812
L67.3906 56.7812
Q61.9219 61.4219 55.7656 63.7656
Q49.6094 66.1094 42.8281 66.1094
Q29.4375 66.1094 22.7188 58.6406
Q16.0156 51.1719 16.0156 36.375
Q16.0156 21.625 22.7188 14.1562
Q29.4375 6.6875 42.8281 6.6875
Q48.0469 6.6875 52.1406 7.59375
Q56.25 8.5 59.5156 10.4062" id="BitstreamVeraSans-Roman-47"/>
      <path d="
M64.4062 67.2812
L64.4062 56.8906
Q59.4219 61.5312 53.7812 63.8125
Q48.1406 66.1094 41.7969 66.1094
Q29.2969 66.1094 22.6562 58.4688
Q16.0156 50.8281 16.0156 36.375
Q16.0156 21.9688 22.6562 14.3281
Q29.2969 6.6875 41.7969 6.6875
Q48.1406 6.6875 53.7812 8.98438
Q59.4219 11.2812 64.4062 15.9219
L64.4062 5.60938
Q59.2344 2.09375 53.4375 0.328125
Q47.6562 -1.42188 41.2188 -1.42188
Q24.6562 -1.42188 15.125 8.70312
Q5.60938 18.8438 5.60938 36.375
Q5.60938 53.9531 15.125 64.0781
Q24.6562 74.2188 41.2188 74.2188
Q47.75 74.2188 53.5312 72.4844
Q59.3281 70.75 64.4062 67.2812" id="BitstreamVeraSans-Roman-43"/>
      <path d="
M8.5 21.5781
L8.5 54.6875
L17.4844 54.6875
L17.4844 21.9219
Q17.4844 14.1562 20.5 10.2656
Q23.5312 6.39062 29.5938 6.39062
Q36.8594 6.39062 41.0781 11.0312
Q45.3125 15.6719 45.3125 23.6875
L45.3125 54.6875
L54.2969 54.6875
L54.2969 0
L45.3125 0
L45.3125 8.40625
Q42.0469 3.42188 37.7188 1
Q33.4062 -1.42188 27.6875 -1.42188
Q18.2656 -1.42188 13.375 4.4375
Q8.5 10.2969 8.5 21.5781" id="BitstreamVeraSans-Roman-75"/>
      <path d="
M41.1094 46.2969
Q39.5938 47.1719 37.8125 47.5781
Q36.0312 48 33.8906 48
Q26.2656 48 22.1875 43.0469
Q18.1094 38.0938 18.1094 28.8125
L18.1094 0
L9.07812 0
L9.07812 54.6875
L18.1094 54.6875
L18.1094 46.1875
Q20.9531 51.1719 25.4844 53.5781
Q30.0312 56 36.5312 56
Q37.4531 56 38.5781 55.875
Q39.7031 55.7656 41.0625 55.5156
z
" id="BitstreamVeraSans-Roman-72"/>
     </defs>
     <g transform="translate(22.295625 280.3)rotate(-90.0)scale(0.2 -0.2)">
      <use transform="translate(0.0 0.125)" xlink:href="#BitstreamVeraSans-Roman-43"/>
      <use transform="translate(69.82421875 0.125)" xlink:href="#BitstreamVeraSans-Roman-75"/>
      <use transform="translate(133.203125 0.125)" xlink:href="#BitstreamVeraSans-Roman-72"/>
      <use transform="translate(174.31640625 0.125)" xlink:href="#BitstreamVeraSans-Roman-72"/>
      <use transform="translate(215.4296875 0.125)" xlink:href="#BitstreamVeraSans-Roman-65"/>
      <use transform="translate(276.953125 0.125)" xlink:href="#BitstreamVeraSans-Roman-6e"/>
      <use transform="translate(340.33203125 0.125)" xlink:href="#BitstreamVeraSans-Roman-74"/>
      <use transform="translate(379.541015625 0.125)" xlink:href="#BitstreamVeraSans-Roman-20"/>
      <use transform="translate(411.328125 0.125)" xlink:href="#BitstreamVeraSans-Roman-28"/>
      <use transform="translate(450.341796875 0.125)" xlink:href="#BitstreamVeraSans-Roman-32"/>
      <use transform="translate(513.96484375 0.125)" xlink:href="#BitstreamVeraSans-Roman-65"/>
      <use transform="translate(575.48828125 0.125)" xlink:href="#Cmr10-a2"/>
      <use transform="translate(658.7890625 0.125)" xlink:href="#BitstreamVeraSans-Roman-2f"/>
      <use transform="translate(692.48046875 0.125)" xlink:href="#BitstreamVeraSans-Roman-47"/>
      <use transform="translate(769.970703125 0.125)" xlink:href="#STIXGeneral-Italic-127"/>
      <use transform="translate(819.970687866 0.125)" xlink:href="#BitstreamVeraSans-Roman-29"/>
     </g>
    </g>
   </g>
   <g id="patch_3">
    <path d="
M46.08 21.6
L570.24 21.6" style="fill:none;stroke:#000000;"/>
   </g>
   <g id="patch_4">
    <path d="
M570.24 367.2
L570.24 21.6" style="fill:none;stroke:#000000;"/>
   </g>
   <g id="patch_5">
    <path d="
M46.08 367.2
L570.24 367.2" style="fill:none;stroke:#000000;"/>
   </g>
   <g id="patch_6">
    <path d="
M46.08 367.2
L46.08 21.6" style="fill:none;stroke:#000000;"/>
   </g>
   <g id="text_16">
    <!-- 0.1 -->
    <defs>
     <path d="
M10.6875 12.4062
L21 12.4062
L21 0
L10.6875 0
z
" id="BitstreamVeraSans-Roman-2e"/>
    </defs>
    <g transform="translate(604.624896 324.56785225)scale(0.12 -0.12)">
     <use xlink:href="#BitstreamVeraSans-Roman-30"/>
     <use x="63.623046875" xlink:href="#BitstreamVeraSans-Roman-2e"/>
     <use x="95.41015625" xlink:href="#BitstreamVeraSans-Roman-31"/>
    </g>
   </g>
   <g id="text_17">
    <!-- 0.2 -->
    <g transform="translate(604.624896 305.536153248)scale(0.12 -0.12)">
     <use xlink:href="#BitstreamVeraSans-Roman-30"/>
     <use x="63.623046875" xlink:href="#BitstreamVeraSans-Roman-2e"/>
     <use x="95.41015625" xlink:href="#BitstreamVeraSans-Roman-32"/>
    </g>
   </g>
   <g id="text_18">
    <!-- 0.3 -->
    <g transform="translate(604.624896 286.794655104)scale(0.12 -0.12)">
     <use xlink:href="#BitstreamVeraSans-Roman-30"/>
     <use x="63.623046875" xlink:href="#BitstreamVeraSans-Roman-2e"/>
     <use x="95.41015625" xlink:href="#BitstreamVeraSans-Roman-33"/>
    </g>
   </g>
   <g id="text_19">
    <!-- 0.4 -->
    <g transform="translate(604.624896 267.969002832)scale(0.12 -0.12)">
     <use xlink:href="#BitstreamVeraSans-Roman-30"/>
     <use x="63.623046875" xlink:href="#BitstreamVeraSans-Roman-2e"/>
     <use x="95.41015625" xlink:href="#BitstreamVeraSans-Roman-34"/>
    </g>
   </g>
   <g id="text_20">
    <!-- 0.5 -->
    <g transform="translate(604.624896 248.492325888)scale(0.12 -0.12)">
     <use xlink:href="#BitstreamVeraSans-Roman-30"/>
     <use x="63.623046875" xlink:href="#BitstreamVeraSans-Roman-2e"/>
     <use x="95.41015625" xlink:href="#BitstreamVeraSans-Roman-35"/>
    </g>
   </g>
   <g id="text_21">
    <!-- 0.6 -->
    <g transform="translate(604.624896 227.8762752)scale(0.12 -0.12)">
     <use xlink:href="#BitstreamVeraSans-Roman-30"/>
     <use x="63.623046875" xlink:href="#BitstreamVeraSans-Roman-2e"/>
     <use x="95.41015625" xlink:href="#BitstreamVeraSans-Roman-36"/>
    </g>
   </g>
   <g id="text_22">
    <!-- 0.7 -->
    <defs>
     <path d="
M8.20312 72.9062
L55.0781 72.9062
L55.0781 68.7031
L28.6094 0
L18.3125 0
L43.2188 64.5938
L8.20312 64.5938
z
" id="BitstreamVeraSans-Roman-37"/>
    </defs>
    <g transform="translate(604.624896 205.65230976)scale(0.12 -0.12)">
     <use xlink:href="#BitstreamVeraSans-Roman-30"/>
     <use x="63.623046875" xlink:href="#BitstreamVeraSans-Roman-2e"/>
     <use x="95.41015625" xlink:href="#BitstreamVeraSans-Roman-37"/>
    </g>
   </g>
   <g id="text_23">
    <!-- 0.8 -->
    <defs>
     <path d="
M31.7812 34.625
Q24.75 34.625 20.7188 30.8594
Q16.7031 27.0938 16.7031 20.5156
Q16.7031 13.9219 20.7188 10.1562
Q24.75 6.39062 31.7812 6.39062
Q38.8125 6.39062 42.8594 10.1719
Q46.9219 13.9688 46.9219 20.5156
Q46.9219 27.0938 42.8906 30.8594
Q38.875 34.625 31.7812 34.625
M21.9219 38.8125
Q15.5781 40.375 12.0312 44.7188
Q8.5 49.0781 8.5 55.3281
Q8.5 64.0625 14.7188 69.1406
Q20.9531 74.2188 31.7812 74.2188
Q42.6719 74.2188 48.875 69.1406
Q55.0781 64.0625 55.0781 55.3281
Q55.0781 49.0781 51.5312 44.7188
Q48 40.375 41.7031 38.8125
Q48.8281 37.1562 52.7969 32.3125
Q56.7812 27.4844 56.7812 20.5156
Q56.7812 9.90625 50.3125 4.23438
Q43.8438 -1.42188 31.7812 -1.42188
Q19.7344 -1.42188 13.25 4.23438
Q6.78125 9.90625 6.78125 20.5156
Q6.78125 27.4844 10.7812 32.3125
Q14.7969 37.1562 21.9219 38.8125
M18.3125 54.3906
Q18.3125 48.7344 21.8438 45.5625
Q25.3906 42.3906 31.7812 42.3906
Q38.1406 42.3906 41.7188 45.5625
Q45.3125 48.7344 45.3125 54.3906
Q45.3125 60.0625 41.7188 63.2344
Q38.1406 66.4062 31.7812 66.4062
Q25.3906 66.4062 21.8438 63.2344
Q18.3125 60.0625 18.3125 54.3906" id="BitstreamVeraSans-Roman-38"/>
    </defs>
    <g transform="translate(604.624896 181.32127848)scale(0.12 -0.12)">
     <use xlink:href="#BitstreamVeraSans-Roman-30"/>
     <use x="63.623046875" xlink:href="#BitstreamVeraSans-Roman-2e"/>
     <use x="95.41015625" xlink:href="#BitstreamVeraSans-Roman-38"/>
    </g>
   </g>
   <g id="text_24">
    <!-- 0.9 -->
    <defs>
     <path d="
M10.9844 1.51562
L10.9844 10.5
Q14.7031 8.73438 18.5 7.8125
Q22.3125 6.89062 25.9844 6.89062
Q35.75 6.89062 40.8906 13.4531
Q46.0469 20.0156 46.7812 33.4062
Q43.9531 29.2031 39.5938 26.9531
Q35.25 24.7031 29.9844 24.7031
Q19.0469 24.7031 12.6719 31.3125
Q6.29688 37.9375 6.29688 49.4219
Q6.29688 60.6406 12.9375 67.4219
Q19.5781 74.2188 30.6094 74.2188
Q43.2656 74.2188 49.9219 64.5156
Q56.5938 54.8281 56.5938 36.375
Q56.5938 19.1406 48.4062 8.85938
Q40.2344 -1.42188 26.4219 -1.42188
Q22.7031 -1.42188 18.8906 -0.6875
Q15.0938 0.046875 10.9844 1.51562
M30.6094 32.4219
Q37.25 32.4219 41.125 36.9531
Q45.0156 41.5 45.0156 49.4219
Q45.0156 57.2812 41.125 61.8438
Q37.25 66.4062 30.6094 66.4062
Q23.9688 66.4062 20.0938 61.8438
Q16.2188 57.2812 16.2188 49.4219
Q16.2188 41.5 20.0938 36.9531
Q23.9688 32.4219 30.6094 32.4219" id="BitstreamVeraSans-Roman-39"/>
    </defs>
    <g transform="translate(604.624896 154.30630208)scale(0.12 -0.12)">
     <use xlink:href="#BitstreamVeraSans-Roman-30"/>
     <use x="63.623046875" xlink:href="#BitstreamVeraSans-Roman-2e"/>
     <use x="95.41015625" xlink:href="#BitstreamVeraSans-Roman-39"/>
    </g>
   </g>
   <g id="text_25">
    <!-- 1.0 -->
    <g transform="translate(604.624896 123.90414048)scale(0.12 -0.12)">
     <use xlink:href="#BitstreamVeraSans-Roman-31"/>
     <use x="63.623046875" xlink:href="#BitstreamVeraSans-Roman-2e"/>
     <use x="95.41015625" xlink:href="#BitstreamVeraSans-Roman-30"/>
    </g>
   </g>
   <g id="text_26">
    <!-- Theoretical I-V Curves MAR -->
    <defs>
     <path d="
M9.8125 72.9062
L24.5156 72.9062
L43.1094 23.2969
L61.8125 72.9062
L76.5156 72.9062
L76.5156 0
L66.8906 0
L66.8906 64.0156
L48.0938 14.0156
L38.1875 14.0156
L19.3906 64.0156
L19.3906 0
L9.8125 0
z
" id="BitstreamVeraSans-Roman-4d"/>
     <path d="
M34.1875 63.1875
L20.7969 26.9062
L47.6094 26.9062
z

M28.6094 72.9062
L39.7969 72.9062
L67.5781 0
L57.3281 0
L50.6875 18.7031
L17.8281 18.7031
L11.1875 0
L0.78125 0
z
" id="BitstreamVeraSans-Roman-41"/>
     <path d="
M44.3906 34.1875
Q47.5625 33.1094 50.5625 29.5938
Q53.5625 26.0781 56.5938 19.9219
L66.6094 0
L56 0
L46.6875 18.7031
Q43.0625 26.0312 39.6719 28.4219
Q36.2812 30.8125 30.4219 30.8125
L19.6719 30.8125
L19.6719 0
L9.8125 0
L9.8125 72.9062
L32.0781 72.9062
Q44.5781 72.9062 50.7344 67.6719
Q56.8906 62.4531 56.8906 51.9062
Q56.8906 45.0156 53.6875 40.4688
Q50.4844 35.9375 44.3906 34.1875
M19.6719 64.7969
L19.6719 38.9219
L32.0781 38.9219
Q39.2031 38.9219 42.8438 42.2188
Q46.4844 45.5156 46.4844 51.9062
Q46.4844 58.2969 42.8438 61.5469
Q39.2031 64.7969 32.0781 64.7969
z
" id="BitstreamVeraSans-Roman-52"/>
     <path d="
M9.42188 54.6875
L18.4062 54.6875
L18.4062 0
L9.42188 0
z

M9.42188 75.9844
L18.4062 75.9844
L18.4062 64.5938
L9.42188 64.5938
z
" id="BitstreamVeraSans-Roman-69"/>
     <path d="
M54.8906 33.0156
L54.8906 0
L45.9062 0
L45.9062 32.7188
Q45.9062 40.4844 42.875 44.3281
Q39.8438 48.1875 33.7969 48.1875
Q26.5156 48.1875 22.3125 43.5469
Q18.1094 38.9219 18.1094 30.9062
L18.1094 0
L9.07812 0
L9.07812 75.9844
L18.1094 75.9844
L18.1094 46.1875
Q21.3438 51.125 25.7031 53.5625
Q30.0781 56 35.7969 56
Q45.2188 56 50.0469 50.1719
Q54.8906 44.3438 54.8906 33.0156" id="BitstreamVeraSans-Roman-68"/>
     <path d="
M48.7812 52.5938
L48.7812 44.1875
Q44.9688 46.2969 41.1406 47.3438
Q37.3125 48.3906 33.4062 48.3906
Q24.6562 48.3906 19.8125 42.8438
Q14.9844 37.3125 14.9844 27.2969
Q14.9844 17.2812 19.8125 11.7344
Q24.6562 6.20312 33.4062 6.20312
Q37.3125 6.20312 41.1406 7.25
Q44.9688 8.29688 48.7812 10.4062
L48.7812 2.09375
Q45.0156 0.34375 40.9844 -0.53125
Q36.9688 -1.42188 32.4219 -1.42188
Q20.0625 -1.42188 12.7812 6.34375
Q5.51562 14.1094 5.51562 27.2969
Q5.51562 40.6719 12.8594 48.3281
Q20.2188 56 33.0156 56
Q37.1562 56 41.1094 55.1406
Q45.0625 54.2969 48.7812 52.5938" id="BitstreamVeraSans-Roman-63"/>
     <path d="
M2.98438 54.6875
L12.5 54.6875
L29.5938 8.79688
L46.6875 54.6875
L56.2031 54.6875
L35.6875 0
L23.4844 0
z
" id="BitstreamVeraSans-Roman-76"/>
     <path d="
M-0.296875 72.9062
L61.375 72.9062
L61.375 64.5938
L35.5 64.5938
L35.5 0
L25.5938 0
L25.5938 64.5938
L-0.296875 64.5938
z
" id="BitstreamVeraSans-Roman-54"/>
     <path d="
M44.2812 53.0781
L44.2812 44.5781
Q40.4844 46.5312 36.375 47.5
Q32.2812 48.4844 27.875 48.4844
Q21.1875 48.4844 17.8438 46.4375
Q14.5 44.3906 14.5 40.2812
Q14.5 37.1562 16.8906 35.375
Q19.2812 33.5938 26.5156 31.9844
L29.5938 31.2969
Q39.1562 29.25 43.1875 25.5156
Q47.2188 21.7812 47.2188 15.0938
Q47.2188 7.46875 41.1875 3.01562
Q35.1562 -1.42188 24.6094 -1.42188
Q20.2188 -1.42188 15.4531 -0.5625
Q10.6875 0.296875 5.42188 2
L5.42188 11.2812
Q10.4062 8.6875 15.2344 7.39062
Q20.0625 6.10938 24.8125 6.10938
Q31.1562 6.10938 34.5625 8.28125
Q37.9844 10.4531 37.9844 14.4062
Q37.9844 18.0625 35.5156 20.0156
Q33.0625 21.9688 24.7031 23.7812
L21.5781 24.5156
Q13.2344 26.2656 9.51562 29.9062
Q5.8125 33.5469 5.8125 39.8906
Q5.8125 47.6094 11.2812 51.7969
Q16.75 56 26.8125 56
Q31.7812 56 36.1719 55.2656
Q40.5781 54.5469 44.2812 53.0781" id="BitstreamVeraSans-Roman-73"/>
     <path d="
M9.8125 72.9062
L19.6719 72.9062
L19.6719 0
L9.8125 0
z
" id="BitstreamVeraSans-Roman-49"/>
     <path d="
M4.89062 31.3906
L31.2031 31.3906
L31.2031 23.3906
L4.89062 23.3906
z
" id="BitstreamVeraSans-Roman-2d"/>
    </defs>
    <g transform="translate(173.0834375 16.6)scale(0.2 -0.2)">
     <use xlink:href="#BitstreamVeraSans-Roman-54"/>
     <use x="61.083984375" xlink:href="#BitstreamVeraSans-Roman-68"/>
     <use x="124.462890625" xlink:href="#BitstreamVeraSans-Roman-65"/>
     <use x="185.986328125" xlink:href="#BitstreamVeraSans-Roman-6f"/>
     <use x="247.16796875" xlink:href="#BitstreamVeraSans-Roman-72"/>
     <use x="286.03125" xlink:href="#BitstreamVeraSans-Roman-65"/>
     <use x="347.5546875" xlink:href="#BitstreamVeraSans-Roman-74"/>
     <use x="386.763671875" xlink:href="#BitstreamVeraSans-Roman-69"/>
     <use x="414.546875" xlink:href="#BitstreamVeraSans-Roman-63"/>
     <use x="469.52734375" xlink:href="#BitstreamVeraSans-Roman-61"/>
     <use x="530.806640625" xlink:href="#BitstreamVeraSans-Roman-6c"/>
     <use x="558.58984375" xlink:href="#BitstreamVeraSans-Roman-20"/>
     <use x="590.376953125" xlink:href="#BitstreamVeraSans-Roman-49"/>
     <use x="619.869140625" xlink:href="#BitstreamVeraSans-Roman-2d"/>
     <use x="650.078125" xlink:href="#BitstreamVeraSans-Roman-56"/>
     <use x="718.486328125" xlink:href="#BitstreamVeraSans-Roman-20"/>
     <use x="750.2734375" xlink:href="#BitstreamVeraSans-Roman-43"/>
     <use x="820.09765625" xlink:href="#BitstreamVeraSans-Roman-75"/>
     <use x="883.4765625" xlink:href="#BitstreamVeraSans-Roman-72"/>
     <use x="924.58984375" xlink:href="#BitstreamVeraSans-Roman-76"/>
     <use x="983.76953125" xlink:href="#BitstreamVeraSans-Roman-65"/>
     <use x="1045.29296875" xlink:href="#BitstreamVeraSans-Roman-73"/>
     <use x="1097.39257812" xlink:href="#BitstreamVeraSans-Roman-20"/>
     <use x="1129.1796875" xlink:href="#BitstreamVeraSans-Roman-4d"/>
     <use x="1215.45898438" xlink:href="#BitstreamVeraSans-Roman-41"/>
     <use x="1283.8671875" xlink:href="#BitstreamVeraSans-Roman-52"/>
    </g>
   </g>
   <g id="legend_1">
    <g id="patch_7">
     <path d="
M56.08 83.0425
L175.946 83.0425
L175.946 31.6
L56.08 31.6
L56.08 83.0425
z
" style="fill:#4c4c4c;opacity:0.5;stroke:#4c4c4c;"/>
    </g>
    <g id="patch_8">
     <path d="
M54.08 81.0425
L173.946 81.0425
L173.946 29.6
L54.08 29.6
L54.08 81.0425
z
" style="fill:#ffffff;stroke:#000000;"/>
    </g>
    <g id="text_27">
     <!-- Transmission -->
     <defs>
      <path d="
M52 44.1875
Q55.375 50.25 60.0625 53.125
Q64.75 56 71.0938 56
Q79.6406 56 84.2812 50.0156
Q88.9219 44.0469 88.9219 33.0156
L88.9219 0
L79.8906 0
L79.8906 32.7188
Q79.8906 40.5781 77.0938 44.375
Q74.3125 48.1875 68.6094 48.1875
Q61.625 48.1875 57.5625 43.5469
Q53.5156 38.9219 53.5156 30.9062
L53.5156 0
L44.4844 0
L44.4844 32.7188
Q44.4844 40.625 41.7031 44.4062
Q38.9219 48.1875 33.1094 48.1875
Q26.2188 48.1875 22.1562 43.5312
Q18.1094 38.875 18.1094 30.9062
L18.1094 0
L9.07812 0
L9.07812 54.6875
L18.1094 54.6875
L18.1094 46.1875
Q21.1875 51.2188 25.4844 53.6094
Q29.7812 56 35.6875 56
Q41.6562 56 45.8281 52.9688
Q50 49.9531 52 44.1875" id="BitstreamVeraSans-Roman-6d"/>
     </defs>
     <g transform="translate(62.8253125 48.1575)scale(0.16 -0.16)">
      <use xlink:href="#BitstreamVeraSans-Roman-54"/>
      <use x="46.333984375" xlink:href="#BitstreamVeraSans-Roman-72"/>
      <use x="87.447265625" xlink:href="#BitstreamVeraSans-Roman-61"/>
      <use x="148.7265625" xlink:href="#BitstreamVeraSans-Roman-6e"/>
      <use x="212.10546875" xlink:href="#BitstreamVeraSans-Roman-73"/>
      <use x="264.205078125" xlink:href="#BitstreamVeraSans-Roman-6d"/>
      <use x="361.6171875" xlink:href="#BitstreamVeraSans-Roman-69"/>
      <use x="389.400390625" xlink:href="#BitstreamVeraSans-Roman-73"/>
      <use x="441.5" xlink:href="#BitstreamVeraSans-Roman-73"/>
      <use x="493.599609375" xlink:href="#BitstreamVeraSans-Roman-69"/>
      <use x="521.3828125" xlink:href="#BitstreamVeraSans-Roman-6f"/>
      <use x="582.564453125" xlink:href="#BitstreamVeraSans-Roman-6e"/>
     </g>
    </g>
    <g id="line2d_60">
     <path d="
M65.28 66.0425
L87.68 66.0425" style="fill:none;stroke:#008000;stroke-dasharray:6.000000,6.000000;stroke-dashoffset:0.0;stroke-width:4;"/>
    </g>
    <g id="line2d_61"/>
    <g id="text_28">
     <!-- 0.4+0.6 -->
     <defs>
      <path d="
M46 62.7031
L46 35.5
L73.1875 35.5
L73.1875 27.2031
L46 27.2031
L46 0
L37.7969 0
L37.7969 27.2031
L10.5938 27.2031
L10.5938 35.5
L37.7969 35.5
L37.7969 62.7031
z
" id="BitstreamVeraSans-Roman-2b"/>
     </defs>
     <g transform="translate(105.28 71.6425)scale(0.16 -0.16)">
      <use xlink:href="#BitstreamVeraSans-Roman-30"/>
      <use x="63.623046875" xlink:href="#BitstreamVeraSans-Roman-2e"/>
      <use x="95.41015625" xlink:href="#BitstreamVeraSans-Roman-34"/>
      <use x="159.033203125" xlink:href="#BitstreamVeraSans-Roman-2b"/>
      <use x="242.822265625" xlink:href="#BitstreamVeraSans-Roman-30"/>
      <use x="306.4453125" xlink:href="#BitstreamVeraSans-Roman-2e"/>
      <use x="338.232421875" xlink:href="#BitstreamVeraSans-Roman-36"/>
     </g>
    </g>
   </g>
  </g>
 </g>
 <defs>
  <clipPath id="pbec72b4b67">
   <rect height="345.6" width="524.16" x="46.08" y="21.6"/>
  </clipPath>
 </defs>
</svg>
