<?xml version="1.0" encoding="utf-8" standalone="no"?>
<!DOCTYPE svg PUBLIC "-//W3C//DTD SVG 1.1//EN"
  "http://www.w3.org/Graphics/SVG/1.1/DTD/svg11.dtd">
<!-- Created with matplotlib (http://matplotlib.org/) -->
<svg height="432pt" version="1.1" viewBox="0 0 576 432" width="576pt" xmlns="http://www.w3.org/2000/svg" xmlns:xlink="http://www.w3.org/1999/xlink">
 <defs>
  <style type="text/css">
*{stroke-linecap:butt;stroke-linejoin:round;}
  </style>
 </defs>
 <g id="figure_1">
  <g id="patch_1">
   <path d="
M0 432
L576 432
L576 0
L0 0
z
" style="fill:#ffffff;"/>
  </g>
  <g id="axes_1">
   <g id="patch_2">
    <path d="
M46.08 367.2
L570.24 367.2
L570.24 21.6
L46.08 21.6
z
" style="fill:#ffffff;"/>
   </g>
   <g id="line2d_1">
    <path clip-path="url(#pbec72b4b67)" d="
M47.5776 367.191
L98.496 367.079
L192.845 366.899
L194.342 366.832
L195.84 366.401
L206.323 366.427
L252.749 366.183
L293.184 365.79
L314.15 365.399
L326.131 364.994
L333.619 364.558
L338.112 364.133
L341.107 363.703
L344.102 363.021
L345.6 362.492
L348.595 361.087
L351.59 360.103
L354.586 359.409
L359.078 358.658
L365.069 357.937
L374.054 357.138
L387.533 356.218
L408.499 355.048
L442.944 353.381
L502.848 350.735
L571.738 347.84
L571.738 347.84" style="fill:none;stroke:#170000;stroke-linecap:square;stroke-width:3;"/>
   </g>
   <g id="line2d_2">
    <path clip-path="url(#pbec72b4b67)" d="
M47.5776 367.185
L80.5248 367.035
L143.424 366.823
L147.917 366.638
L164.39 366.569
L180.864 366.337
L188.352 366.042
L191.347 365.774
L192.845 365.532
L194.342 365.088
L195.84 364.041
L200.333 364.016
L212.314 363.9
L236.275 363.416
L261.734 362.702
L282.701 361.897
L297.677 361.116
L309.658 360.274
L318.643 359.427
L326.131 358.482
L332.122 357.467
L336.614 356.46
L339.61 355.61
L342.605 354.551
L345.6 353.205
L348.595 351.667
L351.59 350.404
L354.586 349.385
L359.078 348.158
L363.571 347.165
L369.562 346.064
L377.05 344.908
L387.533 343.527
L402.509 341.815
L423.475 339.68
L453.427 336.883
L496.858 333.071
L562.752 327.531
L571.738 326.789
L571.738 326.789" style="fill:none;stroke:#2e0000;stroke-linecap:square;stroke-width:3;"/>
   </g>
   <g id="line2d_3">
    <path clip-path="url(#pbec72b4b67)" d="
M47.5776 367.18
L68.544 367.055
L131.443 366.603
L138.931 366.415
L141.926 366.224
L143.424 366.039
L144.922 365.679
L146.419 365.496
L150.912 365.57
L164.39 365.298
L174.874 364.859
L180.864 364.433
L185.357 363.927
L188.352 363.407
L191.347 362.569
L192.845 361.906
L194.342 360.914
L195.84 359.611
L197.338 359.455
L215.309 358.924
L231.782 358.143
L249.754 357.081
L266.227 355.892
L279.706 354.713
L291.686 353.447
L302.17 352.099
L311.155 350.691
L318.643 349.264
L324.634 347.892
L329.126 346.683
L333.619 345.272
L338.112 343.602
L342.605 341.605
L351.59 337.155
L356.083 335.477
L360.576 334.084
L366.566 332.512
L374.054 330.838
L383.04 329.088
L395.021 327.017
L409.997 324.672
L430.963 321.642
L459.418 317.78
L498.355 312.736
L553.766 305.797
L571.738 303.582
L571.738 303.582" style="fill:none;stroke:#450000;stroke-linecap:square;stroke-width:3;"/>
   </g>
   <g id="line2d_4">
    <path clip-path="url(#pbec72b4b67)" d="
M47.5776 367.177
L64.0512 367.068
L102.989 366.751
L107.482 366.647
L114.97 366.457
L117.965 366.228
L120.96 365.887
L123.955 365.918
L131.443 365.668
L137.434 365.175
L140.429 364.706
L141.926 364.341
L143.424 363.814
L144.922 363.07
L146.419 362.948
L149.414 363.062
L155.405 362.903
L162.893 362.462
L170.381 361.784
L176.371 360.994
L180.864 360.163
L183.859 359.425
L186.854 358.454
L188.352 357.839
L189.85 357.103
L191.347 356.204
L192.845 355.09
L195.84 352.46
L197.338 352.179
L203.328 351.759
L215.309 350.908
L228.787 349.724
L243.763 348.174
L257.242 346.556
L269.222 344.909
L279.706 343.267
L290.189 341.388
L299.174 339.539
L306.662 337.784
L314.15 335.785
L320.141 333.967
L326.131 331.91
L332.122 329.564
L336.614 327.583
L341.107 325.397
L350.093 320.78
L354.586 318.91
L359.078 317.307
L365.069 315.448
L372.557 313.416
L381.542 311.245
L392.026 308.943
L405.504 306.209
L423.475 302.798
L447.437 298.489
L480.384 292.809
L525.312 285.303
L571.738 277.706
L571.738 277.706" style="fill:none;stroke:#5c0000;stroke-linecap:square;stroke-width:3;"/>
   </g>
   <g id="line2d_5">
    <path clip-path="url(#pbec72b4b67)" d="
M47.5776 367.172
L65.5488 367.045
L86.5152 366.85
L99.9936 366.414
L102.989 366.13
L104.486 365.921
L110.477 365.703
L113.472 365.395
L116.467 364.858
L119.462 363.956
L120.96 363.875
L123.955 363.887
L128.448 363.526
L132.941 362.886
L135.936 362.24
L138.931 361.304
L140.429 360.667
L141.926 359.871
L144.922 357.908
L146.419 357.895
L149.414 358.002
L153.907 357.748
L159.898 357.095
L165.888 356.161
L170.381 355.252
L174.874 354.112
L177.869 353.183
L180.864 352.074
L183.859 350.729
L186.854 349.064
L189.85 346.961
L192.845 344.313
L194.342 342.862
L195.84 341.731
L197.338 341.329
L201.83 340.67
L219.802 338.323
L231.782 336.506
L243.763 334.477
L255.744 332.224
L267.725 329.708
L278.208 327.258
L287.194 324.937
L296.179 322.375
L303.667 320.023
L311.155 317.44
L318.643 314.589
L324.634 312.09
L330.624 309.38
L336.614 306.455
L351.59 298.939
L356.083 297.145
L362.074 295.035
L369.562 292.693
L378.547 290.156
L389.03 287.431
L402.509 284.157
L420.48 280.034
L444.442 274.782
L477.389 267.813
L522.317 258.555
L571.738 248.548
L571.738 248.548" style="fill:none;stroke:#730000;stroke-linecap:square;stroke-width:3;"/>
   </g>
   <g id="line2d_6">
    <path clip-path="url(#pbec72b4b67)" d="
M47.5776 367.169
L64.0512 367.018
L76.032 366.917
L85.0176 366.539
L88.0128 366.301
L91.008 366.054
L94.0032 365.549
L96.9984 365.37
L99.9936 364.853
L104.486 363.568
L105.984 363.582
L107.482 363.471
L110.477 362.927
L113.472 362.028
L114.97 361.409
L119.462 359.101
L122.458 359.148
L125.453 358.765
L128.448 358.105
L131.443 357.194
L134.438 355.985
L137.434 354.377
L138.931 353.386
L141.926 350.983
L143.424 349.674
L144.922 348.68
L149.414 348.68
L152.41 348.345
L156.902 347.55
L161.395 346.489
L165.888 345.175
L170.381 343.582
L173.376 342.338
L176.371 340.921
L179.366 339.302
L182.362 337.44
L185.357 335.294
L188.352 332.823
L194.342 327.256
L195.84 326.258
L197.338 325.749
L201.83 324.699
L225.792 319.652
L237.773 316.806
L249.754 313.708
L260.237 310.771
L270.72 307.602
L279.706 304.679
L288.691 301.543
L297.677 298.172
L306.662 294.54
L314.15 291.298
L323.136 287.141
L332.122 282.711
L348.595 274.398
L353.088 272.484
L359.078 270.208
L366.566 267.643
L375.552 264.82
L387.533 261.319
L402.509 257.194
L421.978 252.071
L448.934 245.226
L486.374 235.97
L538.79 223.259
L571.738 215.353
L571.738 215.353" style="fill:none;stroke:#8a0000;stroke-linecap:square;stroke-width:3;"/>
   </g>
   <g id="line2d_7">
    <path clip-path="url(#pbec72b4b67)" d="
M47.5776 367.166
L73.0368 366.643
L76.032 366.354
L79.0272 365.984
L82.0224 365.412
L83.52 365.168
L86.5152 364.247
L88.0128 364.032
L89.5104 363.651
L94.0032 361.765
L95.5008 361.601
L96.9984 361.19
L98.496 360.505
L101.491 358.66
L102.989 357.712
L104.486 357.155
L105.984 357.14
L107.482 356.753
L108.979 356.134
L110.477 355.348
L111.974 354.402
L113.472 353.299
L117.965 349.489
L119.462 348.698
L120.96 348.74
L122.458 348.616
L123.955 348.241
L126.95 347.103
L129.946 345.552
L132.941 343.591
L135.936 341.186
L138.931 338.33
L141.926 335.226
L143.424 333.843
L144.922 332.954
L147.917 332.754
L150.912 332.208
L153.907 331.415
L156.902 330.444
L161.395 328.702
L165.888 326.633
L170.381 324.224
L173.376 322.413
L176.371 320.425
L179.366 318.246
L182.362 315.869
L186.854 311.948
L192.845 306.484
L194.342 305.312
L195.84 304.417
L198.835 303.303
L204.826 301.484
L222.797 296.131
L234.778 292.301
L246.758 288.225
L258.739 283.89
L269.222 279.874
L279.706 275.636
L290.189 271.168
L300.672 266.464
L311.155 261.53
L323.136 255.648
L345.6 244.505
L350.093 242.524
L356.083 240.149
L363.571 237.429
L374.054 233.893
L387.533 229.613
L405.504 224.163
L430.963 216.705
L465.408 206.863
L514.829 192.98
L571.738 177.165
L571.738 177.165" style="fill:none;stroke:#a10000;stroke-linecap:square;stroke-width:3;"/>
   </g>
   <g id="line2d_8">
    <path clip-path="url(#pbec72b4b67)" d="
M47.5776 367.163
L61.056 366.862
L64.0512 366.527
L67.0464 365.963
L70.0416 365.113
L71.5392 364.614
L77.5296 361.8
L79.0272 360.881
L80.5248 359.813
L82.0224 359.123
L83.52 358.036
L85.0176 356.668
L86.5152 355.712
L88.0128 355.038
L89.5104 353.731
L91.008 352.129
L92.5056 350.712
L94.0032 349.83
L95.5008 349.28
L96.9984 348.072
L99.9936 344.706
L101.491 343.004
L102.989 341.656
L104.486 340.946
L105.984 340.605
L107.482 339.645
L108.979 338.35
L110.477 336.833
L113.472 333.339
L116.467 329.782
L117.965 328.382
L119.462 327.565
L120.96 327.369
L122.458 326.897
L123.955 326.14
L125.453 325.209
L128.448 322.949
L131.443 320.243
L134.438 317.159
L141.926 308.925
L143.424 307.666
L144.922 306.833
L147.917 306.086
L150.912 305.032
L153.907 303.742
L158.4 301.477
L162.893 298.877
L167.386 295.971
L171.878 292.776
L176.371 289.308
L182.362 284.333
L189.85 277.962
L192.845 275.672
L194.342 274.685
L195.84 273.868
L200.333 271.989
L233.28 259.072
L246.758 253.414
L260.237 247.519
L273.715 241.397
L288.691 234.351
L306.662 225.629
L336.614 211.043
L345.6 206.949
L351.59 204.467
L360.576 201.051
L372.557 196.774
L389.03 191.152
L412.992 183.235
L448.934 171.626
L502.848 154.47
L571.738 132.746
L571.738 132.746" style="fill:none;stroke:#b80000;stroke-linecap:square;stroke-width:3;"/>
   </g>
   <g id="line2d_9">
    <path clip-path="url(#pbec72b4b67)" d="
M47.5776 367.159
L52.0704 367.051
L53.568 366.887
L55.0656 366.526
L56.5632 365.874
L58.0608 364.931
L59.5584 363.69
L61.056 362.199
L64.0512 358.577
L67.0464 354.389
L71.5392 347.562
L76.032 340.423
L77.5296 338.407
L79.0272 335.771
L80.5248 333.618
L82.0224 331.702
L83.52 329.09
L85.0176 326.72
L88.0128 323.23
L91.008 318.22
L92.5056 316.286
L95.5008 313.468
L96.9984 311.337
L99.9936 306.694
L101.491 304.718
L102.989 303.19
L105.984 301.085
L107.482 299.518
L110.477 295.724
L113.472 291.751
L114.97 289.904
L116.467 288.272
L117.965 286.942
L119.462 285.964
L120.96 285.252
L122.458 284.327
L125.453 281.934
L128.448 279.146
L132.941 274.573
L137.434 269.939
L140.429 267.123
L141.926 265.891
L143.424 264.828
L144.922 263.968
L149.414 261.819
L153.907 259.291
L158.4 256.507
L164.39 252.51
L171.878 247.2
L186.854 236.437
L191.347 233.55
L194.342 231.86
L198.835 229.745
L230.285 215.567
L251.251 205.789
L282.701 190.837
L312.653 176.661
L327.629 169.8
L339.61 164.537
L348.595 160.792
L359.078 156.699
L377.05 149.959
L405.504 139.566
L448.934 123.968
L514.829 100.555
L571.738 80.4532
L571.738 80.4532" style="fill:none;stroke:#cf0000;stroke-linecap:square;stroke-width:3;"/>
   </g>
   <g id="line2d_10">
    <path clip-path="url(#pbec72b4b67)" d="
M47.5776 307.706
L49.0752 282.811
L50.5728 272.658
L52.0704 265.039
L53.568 260.425
L55.0656 257.032
L56.5632 254.044
L58.0608 251.62
L59.5584 249.459
L62.5536 245.794
L65.5488 242.667
L68.544 239.883
L71.5392 237.355
L76.032 233.863
L80.5248 230.654
L86.5152 226.678
L94.0032 222.054
L104.486 216.03
L119.462 208.016
L143.424 196.093
L174.874 181.423
L191.347 174.076
L230.285 157.14
L257.242 145.709
L290.189 131.994
L327.629 116.655
L392.026 90.5889
L441.446 70.8089
L502.848 46.4927
L571.738 19.4193
L571.738 19.4193" style="fill:none;stroke:#e60000;stroke-linecap:square;stroke-width:3;"/>
   </g>
   <g id="line2d_11">
    <path clip-path="url(#pbec72b4b67)" d="
M47.5776 367.165
L62.5536 366.995
L95.5008 366.743
L117.965 366.558
L122.458 366.415
L132.941 366.298
L138.931 366.105
L141.926 365.882
L143.424 365.662
L144.922 365.216
L146.419 364.915
L149.414 365.008
L155.405 364.936
L165.888 364.606
L174.874 364.111
L180.864 363.569
L185.357 362.921
L188.352 362.249
L189.85 361.775
L191.347 361.143
L192.845 360.239
L194.342 358.803
L195.84 356.452
L197.338 356.252
L206.323 356.026
L216.806 355.486
L231.782 354.464
L246.758 353.222
L260.237 351.902
L272.218 350.527
L282.701 349.116
L291.686 347.704
L299.174 346.336
L306.662 344.74
L312.653 343.244
L318.643 341.491
L323.136 339.952
L327.629 338.161
L330.624 336.787
L333.619 335.233
L336.614 333.452
L339.61 331.386
L342.605 328.957
L345.6 326.076
L348.595 322.97
L351.59 320.359
L354.586 318.183
L357.581 316.322
L360.576 314.69
L365.069 312.551
L369.562 310.676
L375.552 308.455
L383.04 305.982
L392.026 303.303
L402.509 300.434
L415.987 297.002
L432.461 293.051
L453.427 288.26
L480.384 282.335
L516.326 274.675
L564.25 264.711
L571.738 263.171
L571.738 263.171" style="fill:none;stroke:#0000ff;stroke-dasharray:6.000000,6.000000;stroke-dashoffset:0.0;stroke-width:4;"/>
   </g>
   <g id="line2d_12">
    <path clip-path="url(#pbec72b4b67)" d="
M47.5776 367.146
L59.5584 366.911
L76.032 366.715
L85.0176 366.287
L88.0128 366.026
L91.008 365.763
L94.0032 365.225
L98.496 364.79
L101.491 364.046
L104.486 363.052
L107.482 362.919
L110.477 362.33
L113.472 361.348
L114.97 360.667
L116.467 359.827
L119.462 357.908
L120.96 357.807
L122.458 357.878
L125.453 357.454
L128.448 356.701
L131.443 355.662
L134.438 354.249
L135.936 353.372
L137.434 352.352
L138.931 351.158
L140.429 349.757
L141.926 348.124
L144.922 344.55
L146.419 344.451
L147.917 344.598
L150.912 344.385
L153.907 343.876
L156.902 343.182
L161.395 341.857
L165.888 340.198
L168.883 338.889
L171.878 337.391
L174.874 335.672
L177.869 333.684
L180.864 331.367
L183.859 328.631
L186.854 325.353
L188.352 323.461
L189.85 321.368
L191.347 319.049
L195.84 311.519
L197.338 310.728
L200.333 309.765
L221.299 303.864
L230.285 300.994
L239.27 297.898
L248.256 294.569
L257.242 290.989
L264.73 287.795
L272.218 284.389
L279.706 280.745
L287.194 276.834
L293.184 273.488
L299.174 269.924
L305.165 266.117
L311.155 262.037
L317.146 257.648
L323.136 252.913
L327.629 249.11
L332.122 245.075
L336.614 240.801
L342.605 234.762
L348.595 228.68
L351.59 226.017
L354.586 223.6
L359.078 220.315
L363.571 217.33
L369.562 213.675
L375.552 210.285
L383.04 206.308
L392.026 201.802
L402.509 196.794
L415.987 190.621
L432.461 183.341
L453.427 174.343
L478.886 163.669
L511.834 150.106
L555.264 132.488
L571.738 125.859
L571.738 125.859" style="fill:none;stroke:#008000;stroke-dasharray:6.000000,6.000000;stroke-dashoffset:0.0;stroke-width:4;"/>
   </g>
   <g id="matplotlib.axis_1">
    <g id="xtick_1">
     <g id="line2d_13">
      <path clip-path="url(#pbec72b4b67)" d="
M495.81 367.2
L495.81 21.6" style="fill:none;stroke:#000000;stroke-dasharray:1.000000,3.000000;stroke-dashoffset:0.0;stroke-width:0.5;"/>
     </g>
     <g id="line2d_14">
      <defs>
       <path d="
M0 0
L0 -4" id="m93b0483c22" style="stroke:#000000;stroke-width:0.5;"/>
      </defs>
      <g>
       <use style="stroke:#000000;stroke-width:0.5;" x="495.80972973" xlink:href="#m93b0483c22" y="367.2"/>
      </g>
     </g>
     <g id="line2d_15">
      <defs>
       <path d="
M0 0
L0 4" id="m741efc42ff" style="stroke:#000000;stroke-width:0.5;"/>
      </defs>
      <g>
       <use style="stroke:#000000;stroke-width:0.5;" x="495.80972973" xlink:href="#m741efc42ff" y="21.6"/>
      </g>
     </g>
     <g id="text_1">
      <!-- 3 -->
      <defs>
       <path d="
M40.5781 39.3125
Q47.6562 37.7969 51.625 33
Q55.6094 28.2188 55.6094 21.1875
Q55.6094 10.4062 48.1875 4.48438
Q40.7656 -1.42188 27.0938 -1.42188
Q22.5156 -1.42188 17.6562 -0.515625
Q12.7969 0.390625 7.625 2.20312
L7.625 11.7188
Q11.7188 9.32812 16.5938 8.10938
Q21.4844 6.89062 26.8125 6.89062
Q36.0781 6.89062 40.9375 10.5469
Q45.7969 14.2031 45.7969 21.1875
Q45.7969 27.6406 41.2812 31.2656
Q36.7656 34.9062 28.7188 34.9062
L20.2188 34.9062
L20.2188 43.0156
L29.1094 43.0156
Q36.375 43.0156 40.2344 45.9219
Q44.0938 48.8281 44.0938 54.2969
Q44.0938 59.9062 40.1094 62.9062
Q36.1406 65.9219 28.7188 65.9219
Q24.6562 65.9219 20.0156 65.0312
Q15.375 64.1562 9.8125 62.3125
L9.8125 71.0938
Q15.4375 72.6562 20.3438 73.4375
Q25.25 74.2188 29.5938 74.2188
Q40.8281 74.2188 47.3594 69.1094
Q53.9062 64.0156 53.9062 55.3281
Q53.9062 49.2656 50.4375 45.0938
Q46.9688 40.9219 40.5781 39.3125" id="BitstreamVeraSans-Roman-33"/>
      </defs>
      <g transform="translate(491.01129223 386.396875)scale(0.2 -0.2)">
       <use xlink:href="#BitstreamVeraSans-Roman-33"/>
      </g>
     </g>
    </g>
    <g id="xtick_2">
     <g id="line2d_16">
      <path clip-path="url(#pbec72b4b67)" d="
M345.6 367.2
L345.6 21.6" style="fill:none;stroke:#000000;stroke-dasharray:1.000000,3.000000;stroke-dashoffset:0.0;stroke-width:0.5;"/>
     </g>
     <g id="line2d_17">
      <g>
       <use style="stroke:#000000;stroke-width:0.5;" x="345.6" xlink:href="#m93b0483c22" y="367.2"/>
      </g>
     </g>
     <g id="line2d_18">
      <g>
       <use style="stroke:#000000;stroke-width:0.5;" x="345.6" xlink:href="#m741efc42ff" y="21.6"/>
      </g>
     </g>
     <g id="text_2">
      <!-- 2 -->
      <defs>
       <path d="
M19.1875 8.29688
L53.6094 8.29688
L53.6094 0
L7.32812 0
L7.32812 8.29688
Q12.9375 14.1094 22.625 23.8906
Q32.3281 33.6875 34.8125 36.5312
Q39.5469 41.8438 41.4219 45.5312
Q43.3125 49.2188 43.3125 52.7812
Q43.3125 58.5938 39.2344 62.25
Q35.1562 65.9219 28.6094 65.9219
Q23.9688 65.9219 18.8125 64.3125
Q13.6719 62.7031 7.8125 59.4219
L7.8125 69.3906
Q13.7656 71.7812 18.9375 73
Q24.125 74.2188 28.4219 74.2188
Q39.75 74.2188 46.4844 68.5469
Q53.2188 62.8906 53.2188 53.4219
Q53.2188 48.9219 51.5312 44.8906
Q49.8594 40.875 45.4062 35.4062
Q44.1875 33.9844 37.6406 27.2188
Q31.1094 20.4531 19.1875 8.29688" id="BitstreamVeraSans-Roman-32"/>
      </defs>
      <g transform="translate(340.971875 386.396875)scale(0.2 -0.2)">
       <use xlink:href="#BitstreamVeraSans-Roman-32"/>
      </g>
     </g>
    </g>
    <g id="xtick_3">
     <g id="line2d_19">
      <path clip-path="url(#pbec72b4b67)" d="
M195.84 367.2
L195.84 21.6" style="fill:none;stroke:#000000;stroke-dasharray:1.000000,3.000000;stroke-dashoffset:0.0;stroke-width:0.5;"/>
     </g>
     <g id="line2d_20">
      <g>
       <use style="stroke:#000000;stroke-width:0.5;" x="195.84" xlink:href="#m93b0483c22" y="367.2"/>
      </g>
     </g>
     <g id="line2d_21">
      <g>
       <use style="stroke:#000000;stroke-width:0.5;" x="195.84" xlink:href="#m741efc42ff" y="21.6"/>
      </g>
     </g>
     <g id="text_3">
      <!-- 1 -->
      <defs>
       <path d="
M12.4062 8.29688
L28.5156 8.29688
L28.5156 63.9219
L10.9844 60.4062
L10.9844 69.3906
L28.4219 72.9062
L38.2812 72.9062
L38.2812 8.29688
L54.3906 8.29688
L54.3906 0
L12.4062 0
z
" id="BitstreamVeraSans-Roman-31"/>
      </defs>
      <g transform="translate(191.499375 386.396875)scale(0.2 -0.2)">
       <use xlink:href="#BitstreamVeraSans-Roman-31"/>
      </g>
     </g>
    </g>
    <g id="xtick_4">
     <g id="line2d_22">
      <path clip-path="url(#pbec72b4b67)" d="
M145.92 367.2
L145.92 21.6" style="fill:none;stroke:#000000;stroke-dasharray:1.000000,3.000000;stroke-dashoffset:0.0;stroke-width:0.5;"/>
     </g>
     <g id="line2d_23">
      <g>
       <use style="stroke:#000000;stroke-width:0.5;" x="145.92" xlink:href="#m93b0483c22" y="367.2"/>
      </g>
     </g>
     <g id="line2d_24">
      <g>
       <use style="stroke:#000000;stroke-width:0.5;" x="145.92" xlink:href="#m741efc42ff" y="21.6"/>
      </g>
     </g>
     <g id="text_4">
      <!-- $\frac{2}{3}$ -->
      <defs>
       <path d="
M9.51562 7.71875
Q11.8594 4.29688 15.8125 2.64062
Q19.7812 0.984375 24.3125 0.984375
Q30.125 0.984375 32.5625 5.9375
Q35.0156 10.8906 35.0156 17.1875
Q35.0156 20.0156 34.5 22.8438
Q33.9844 25.6875 32.7656 28.125
Q31.5469 30.5625 29.4219 32.0312
Q27.2969 33.5 24.2188 33.5
L17.5781 33.5
Q16.7031 33.5 16.7031 34.4219
L16.7031 35.2969
Q16.7031 36.0781 17.5781 36.0781
L23.0938 36.5312
Q26.6094 36.5312 28.9219 39.1562
Q31.25 41.7969 32.3281 45.5781
Q33.4062 49.3594 33.4062 52.7812
Q33.4062 57.5625 31.1562 60.6406
Q28.9062 63.7188 24.3125 63.7188
Q20.5156 63.7188 17.0469 62.2812
Q13.5781 60.8438 11.5312 57.9062
Q11.7188 57.9531 11.8594 57.9844
Q12.0156 58.0156 12.2031 58.0156
Q14.4531 58.0156 15.9688 56.4531
Q17.4844 54.8906 17.4844 52.6875
Q17.4844 50.5312 15.9688 48.9688
Q14.4531 47.4062 12.2031 47.4062
Q10.0156 47.4062 8.45312 48.9688
Q6.89062 50.5312 6.89062 52.6875
Q6.89062 56.9844 9.46875 60.1562
Q12.0625 63.3281 16.1406 64.9688
Q20.2188 66.6094 24.3125 66.6094
Q27.3438 66.6094 30.7031 65.7031
Q34.0781 64.7969 36.8125 63.1094
Q39.5469 61.4219 41.2812 58.7812
Q43.0156 56.1562 43.0156 52.7812
Q43.0156 48.5781 41.1406 45.0156
Q39.2656 41.4531 35.9844 38.8594
Q32.7188 36.2812 28.8125 35.0156
Q33.1562 34.1875 37.0625 31.7344
Q40.9688 29.2969 43.3281 25.4844
Q45.7031 21.6875 45.7031 17.2812
Q45.7031 11.7656 42.6719 7.29688
Q39.6562 2.82812 34.7188 0.3125
Q29.7812 -2.20312 24.3125 -2.20312
Q19.625 -2.20312 14.9062 -0.40625
Q10.2031 1.375 7.20312 4.9375
Q4.20312 8.5 4.20312 13.4844
Q4.20312 15.9688 5.85938 17.625
Q7.51562 19.2812 10.0156 19.2812
Q11.625 19.2812 12.9688 18.5312
Q14.3125 17.7812 15.0625 16.4062
Q15.8281 15.0469 15.8281 13.4844
Q15.8281 11.0312 14.1094 9.375
Q12.4062 7.71875 10.0156 7.71875
z
" id="Cmr10-33"/>
       <path d="
M4.98438 0
L4.98438 2.6875
Q4.98438 2.9375 5.17188 3.21875
L20.7031 20.4062
Q24.2188 24.2188 26.4062 26.7969
Q28.6094 29.3906 30.75 32.7656
Q32.9062 36.1406 34.1562 39.625
Q35.4062 43.1094 35.4062 47.0156
Q35.4062 51.125 33.8906 54.8594
Q32.375 58.5938 29.375 60.8438
Q26.375 63.0938 22.125 63.0938
Q17.7812 63.0938 14.3125 60.4688
Q10.8438 57.8594 9.42188 53.7188
Q9.8125 53.8125 10.5 53.8125
Q12.75 53.8125 14.3281 52.2969
Q15.9219 50.7812 15.9219 48.3906
Q15.9219 46.0938 14.3281 44.5
Q12.75 42.9219 10.5 42.9219
Q8.15625 42.9219 6.5625 44.5469
Q4.98438 46.1875 4.98438 48.3906
Q4.98438 52.1562 6.39062 55.4375
Q7.8125 58.7344 10.4688 61.2969
Q13.1406 63.875 16.4844 65.2344
Q19.8281 66.6094 23.5781 66.6094
Q29.2969 66.6094 34.2188 64.1875
Q39.1562 61.7656 42.0312 57.3438
Q44.9219 52.9375 44.9219 47.0156
Q44.9219 42.6719 43.0156 38.7656
Q41.1094 34.8594 38.125 31.6562
Q35.1562 28.4688 30.5156 24.4062
Q25.875 20.3594 24.4219 19
L13.0938 8.10938
L22.7031 8.10938
Q29.7812 8.10938 34.5469 8.21875
Q39.3125 8.34375 39.5938 8.59375
Q40.7656 9.85938 42 17.8281
L44.9219 17.8281
L42.0938 0
z
" id="Cmr10-32"/>
      </defs>
      <g transform="translate(141.12 388.2)scale(0.2 -0.2)">
       <use transform="translate(0.0 38.3734375)scale(0.7)" xlink:href="#Cmr10-32"/>
       <use transform="translate(0.0 -39.503125)scale(0.7)" xlink:href="#Cmr10-33"/>
       <path d="
M0 13.3734
L0 19.6234
L35 19.6234
L35 13.3734
L0 13.3734
z
"/>
      </g>
     </g>
    </g>
    <g id="xtick_5">
     <g id="line2d_25">
      <path clip-path="url(#pbec72b4b67)" d="
M120.96 367.2
L120.96 21.6" style="fill:none;stroke:#000000;stroke-dasharray:1.000000,3.000000;stroke-dashoffset:0.0;stroke-width:0.5;"/>
     </g>
     <g id="line2d_26">
      <g>
       <use style="stroke:#000000;stroke-width:0.5;" x="120.96" xlink:href="#m93b0483c22" y="367.2"/>
      </g>
     </g>
     <g id="line2d_27">
      <g>
       <use style="stroke:#000000;stroke-width:0.5;" x="120.96" xlink:href="#m741efc42ff" y="21.6"/>
      </g>
     </g>
     <g id="text_5">
      <!-- $\frac{1}{2}$ -->
      <defs>
       <path d="
M9.28125 0
L9.28125 3.51562
Q21.7812 3.51562 21.7812 6.6875
L21.7812 59.1875
Q16.6094 56.6875 8.6875 56.6875
L8.6875 60.2031
Q20.9531 60.2031 27.2031 66.6094
L28.6094 66.6094
Q28.9531 66.6094 29.2656 66.3281
Q29.5938 66.0625 29.5938 65.7188
L29.5938 6.6875
Q29.5938 3.51562 42.0938 3.51562
L42.0938 0
z
" id="Cmr10-31"/>
      </defs>
      <g transform="translate(116.16 388.2)scale(0.2 -0.2)">
       <use transform="translate(0.0 38.3734375)scale(0.7)" xlink:href="#Cmr10-31"/>
       <use transform="translate(0.0 -39.503125)scale(0.7)" xlink:href="#Cmr10-32"/>
       <path d="
M0 13.3734
L0 19.6234
L35 19.6234
L35 13.3734
L0 13.3734
z
"/>
      </g>
     </g>
    </g>
    <g id="xtick_6">
     <g id="line2d_28">
      <path clip-path="url(#pbec72b4b67)" d="
M105.984 367.2
L105.984 21.6" style="fill:none;stroke:#000000;stroke-dasharray:1.000000,3.000000;stroke-dashoffset:0.0;stroke-width:0.5;"/>
     </g>
     <g id="line2d_29">
      <g>
       <use style="stroke:#000000;stroke-width:0.5;" x="105.984" xlink:href="#m93b0483c22" y="367.2"/>
      </g>
     </g>
     <g id="line2d_30">
      <g>
       <use style="stroke:#000000;stroke-width:0.5;" x="105.984" xlink:href="#m741efc42ff" y="21.6"/>
      </g>
     </g>
     <g id="text_6">
      <!-- $\frac{2}{5}$ -->
      <defs>
       <path d="
M8.6875 11.375
Q9.71875 8.45312 11.8438 6.04688
Q13.9688 3.65625 16.875 2.3125
Q19.7812 0.984375 22.9062 0.984375
Q30.125 0.984375 32.8594 6.59375
Q35.5938 12.2031 35.5938 20.2188
Q35.5938 23.6875 35.4688 26.0469
Q35.3594 28.4219 34.8125 30.6094
Q33.8906 34.125 31.5625 36.7656
Q29.25 39.4062 25.875 39.4062
Q22.5156 39.4062 20.0938 38.375
Q17.6719 37.3594 16.1562 35.9844
Q14.6562 34.625 13.4844 33.1094
Q12.3125 31.5938 12.0156 31.5
L10.8906 31.5
Q10.6406 31.5 10.2656 31.8125
Q9.90625 32.125 9.90625 32.4219
L9.90625 65.8281
Q9.90625 66.0625 10.2188 66.3281
Q10.5469 66.6094 10.8906 66.6094
L11.1875 66.6094
Q17.9219 63.375 25.4844 63.375
Q32.9062 63.375 39.7969 66.6094
L40.0938 66.6094
Q40.4375 66.6094 40.7188 66.3594
Q41.0156 66.1094 41.0156 65.8281
L41.0156 64.8906
Q41.0156 64.4062 40.8281 64.4062
Q37.4062 59.8594 32.25 57.3125
Q27.0938 54.7812 21.5781 54.7812
Q17.5781 54.7812 13.375 55.9062
L13.375 37.0156
Q16.7031 39.7031 19.3125 40.8438
Q21.9219 42 25.9844 42
Q31.5 42 35.8594 38.8125
Q40.2344 35.6406 42.5781 30.5312
Q44.9219 25.4375 44.9219 20.125
Q44.9219 14.1094 41.9688 8.98438
Q39.0156 3.85938 33.9375 0.828125
Q28.8594 -2.20312 22.9062 -2.20312
Q17.9688 -2.20312 13.8438 0.328125
Q9.71875 2.875 7.34375 7.17188
Q4.98438 11.4688 4.98438 16.3125
Q4.98438 18.5625 6.4375 19.9688
Q7.90625 21.3906 10.1094 21.3906
Q12.3125 21.3906 13.7969 19.9375
Q15.2812 18.5 15.2812 16.3125
Q15.2812 14.1562 13.7969 12.6719
Q12.3125 11.1875 10.1094 11.1875
Q9.76562 11.1875 9.32812 11.25
Q8.89062 11.3281 8.6875 11.375" id="Cmr10-35"/>
      </defs>
      <g transform="translate(101.184 388.2)scale(0.2 -0.2)">
       <use transform="translate(0.0 38.3734375)scale(0.7)" xlink:href="#Cmr10-32"/>
       <use transform="translate(0.0 -39.503125)scale(0.7)" xlink:href="#Cmr10-35"/>
       <path d="
M0 13.3734
L0 19.6234
L35 19.6234
L35 13.3734
L0 13.3734
z
"/>
      </g>
     </g>
    </g>
    <g id="xtick_7">
     <g id="line2d_31">
      <path clip-path="url(#pbec72b4b67)" d="
M96 367.2
L96 21.6" style="fill:none;stroke:#000000;stroke-dasharray:1.000000,3.000000;stroke-dashoffset:0.0;stroke-width:0.5;"/>
     </g>
     <g id="line2d_32">
      <g>
       <use style="stroke:#000000;stroke-width:0.5;" x="96.0" xlink:href="#m93b0483c22" y="367.2"/>
      </g>
     </g>
     <g id="line2d_33">
      <g>
       <use style="stroke:#000000;stroke-width:0.5;" x="96.0" xlink:href="#m741efc42ff" y="21.6"/>
      </g>
     </g>
    </g>
    <g id="xtick_8">
     <g id="line2d_34">
      <path clip-path="url(#pbec72b4b67)" d="
M88.8686 367.2
L88.8686 21.6" style="fill:none;stroke:#000000;stroke-dasharray:1.000000,3.000000;stroke-dashoffset:0.0;stroke-width:0.5;"/>
     </g>
     <g id="line2d_35">
      <g>
       <use style="stroke:#000000;stroke-width:0.5;" x="88.8685714286" xlink:href="#m93b0483c22" y="367.2"/>
      </g>
     </g>
     <g id="line2d_36">
      <g>
       <use style="stroke:#000000;stroke-width:0.5;" x="88.8685714286" xlink:href="#m741efc42ff" y="21.6"/>
      </g>
     </g>
    </g>
    <g id="xtick_9">
     <g id="line2d_37">
      <path clip-path="url(#pbec72b4b67)" d="
M83.52 367.2
L83.52 21.6" style="fill:none;stroke:#000000;stroke-dasharray:1.000000,3.000000;stroke-dashoffset:0.0;stroke-width:0.5;"/>
     </g>
     <g id="line2d_38">
      <g>
       <use style="stroke:#000000;stroke-width:0.5;" x="83.52" xlink:href="#m93b0483c22" y="367.2"/>
      </g>
     </g>
     <g id="line2d_39">
      <g>
       <use style="stroke:#000000;stroke-width:0.5;" x="83.52" xlink:href="#m741efc42ff" y="21.6"/>
      </g>
     </g>
    </g>
    <g id="text_7">
     <!-- Voltage ($\Delta$) -->
     <defs>
      <path id="BitstreamVeraSans-Roman-20"/>
      <path d="
M5.42188 0
Q4.59375 0 4.59375 0.78125
Q4.64062 0.875 4.65625 0.921875
Q4.6875 0.984375 4.6875 1.125
L39.1094 70.5156
Q39.5469 71.5781 40.9219 71.5781
L42.2812 71.5781
Q43.6562 71.5781 44.0938 70.5156
L78.5156 1.125
Q78.5625 1.03125 78.5781 0.953125
Q78.6094 0.875 78.6094 0.78125
Q78.6094 0 77.7812 0
z

M12.0156 8.01562
L64.7031 8.01562
L38.375 61.0781
z
" id="Cmr10-a2"/>
      <path d="
M8.01562 75.875
L15.8281 75.875
Q23.1406 64.3594 26.7812 53.3125
Q30.4219 42.2812 30.4219 31.3906
Q30.4219 20.4531 26.7812 9.375
Q23.1406 -1.70312 15.8281 -13.1875
L8.01562 -13.1875
Q14.5 -2 17.7031 9.0625
Q20.9062 20.125 20.9062 31.3906
Q20.9062 42.6719 17.7031 53.6562
Q14.5 64.6562 8.01562 75.875" id="BitstreamVeraSans-Roman-29"/>
      <path d="
M31 75.875
Q24.4688 64.6562 21.2812 53.6562
Q18.1094 42.6719 18.1094 31.3906
Q18.1094 20.125 21.3125 9.0625
Q24.5156 -2 31 -13.1875
L23.1875 -13.1875
Q15.875 -1.70312 12.2344 9.375
Q8.59375 20.4531 8.59375 31.3906
Q8.59375 42.2812 12.2031 53.3125
Q15.8281 64.3594 23.1875 75.875
z
" id="BitstreamVeraSans-Roman-28"/>
      <path d="
M30.6094 48.3906
Q23.3906 48.3906 19.1875 42.75
Q14.9844 37.1094 14.9844 27.2969
Q14.9844 17.4844 19.1562 11.8438
Q23.3438 6.20312 30.6094 6.20312
Q37.7969 6.20312 41.9844 11.8594
Q46.1875 17.5312 46.1875 27.2969
Q46.1875 37.0156 41.9844 42.7031
Q37.7969 48.3906 30.6094 48.3906
M30.6094 56
Q42.3281 56 49.0156 48.375
Q55.7188 40.7656 55.7188 27.2969
Q55.7188 13.875 49.0156 6.21875
Q42.3281 -1.42188 30.6094 -1.42188
Q18.8438 -1.42188 12.1719 6.21875
Q5.51562 13.875 5.51562 27.2969
Q5.51562 40.7656 12.1719 48.375
Q18.8438 56 30.6094 56" id="BitstreamVeraSans-Roman-6f"/>
      <path d="
M9.42188 75.9844
L18.4062 75.9844
L18.4062 0
L9.42188 0
z
" id="BitstreamVeraSans-Roman-6c"/>
      <path d="
M28.6094 0
L0.78125 72.9062
L11.0781 72.9062
L34.1875 11.5312
L57.3281 72.9062
L67.5781 72.9062
L39.7969 0
z
" id="BitstreamVeraSans-Roman-56"/>
      <path d="
M56.2031 29.5938
L56.2031 25.2031
L14.8906 25.2031
Q15.4844 15.9219 20.4844 11.0625
Q25.4844 6.20312 34.4219 6.20312
Q39.5938 6.20312 44.4531 7.46875
Q49.3125 8.73438 54.1094 11.2812
L54.1094 2.78125
Q49.2656 0.734375 44.1875 -0.34375
Q39.1094 -1.42188 33.8906 -1.42188
Q20.7969 -1.42188 13.1562 6.1875
Q5.51562 13.8125 5.51562 26.8125
Q5.51562 40.2344 12.7656 48.1094
Q20.0156 56 32.3281 56
Q43.3594 56 49.7812 48.8906
Q56.2031 41.7969 56.2031 29.5938
M47.2188 32.2344
Q47.125 39.5938 43.0938 43.9844
Q39.0625 48.3906 32.4219 48.3906
Q24.9062 48.3906 20.3906 44.1406
Q15.875 39.8906 15.1875 32.1719
z
" id="BitstreamVeraSans-Roman-65"/>
      <path d="
M45.4062 27.9844
Q45.4062 37.75 41.375 43.1094
Q37.3594 48.4844 30.0781 48.4844
Q22.8594 48.4844 18.8281 43.1094
Q14.7969 37.75 14.7969 27.9844
Q14.7969 18.2656 18.8281 12.8906
Q22.8594 7.51562 30.0781 7.51562
Q37.3594 7.51562 41.375 12.8906
Q45.4062 18.2656 45.4062 27.9844
M54.3906 6.78125
Q54.3906 -7.17188 48.1875 -13.9844
Q42 -20.7969 29.2031 -20.7969
Q24.4688 -20.7969 20.2656 -20.0938
Q16.0625 -19.3906 12.1094 -17.9219
L12.1094 -9.1875
Q16.0625 -11.3281 19.9219 -12.3438
Q23.7812 -13.375 27.7812 -13.375
Q36.625 -13.375 41.0156 -8.76562
Q45.4062 -4.15625 45.4062 5.17188
L45.4062 9.625
Q42.625 4.78125 38.2812 2.39062
Q33.9375 0 27.875 0
Q17.8281 0 11.6719 7.65625
Q5.51562 15.3281 5.51562 27.9844
Q5.51562 40.6719 11.6719 48.3281
Q17.8281 56 27.875 56
Q33.9375 56 38.2812 53.6094
Q42.625 51.2188 45.4062 46.3906
L45.4062 54.6875
L54.3906 54.6875
z
" id="BitstreamVeraSans-Roman-67"/>
      <path d="
M34.2812 27.4844
Q23.3906 27.4844 19.1875 25
Q14.9844 22.5156 14.9844 16.5
Q14.9844 11.7188 18.1406 8.90625
Q21.2969 6.10938 26.7031 6.10938
Q34.1875 6.10938 38.7031 11.4062
Q43.2188 16.7031 43.2188 25.4844
L43.2188 27.4844
z

M52.2031 31.2031
L52.2031 0
L43.2188 0
L43.2188 8.29688
Q40.1406 3.32812 35.5469 0.953125
Q30.9531 -1.42188 24.3125 -1.42188
Q15.9219 -1.42188 10.9531 3.29688
Q6 8.01562 6 15.9219
Q6 25.1406 12.1719 29.8281
Q18.3594 34.5156 30.6094 34.5156
L43.2188 34.5156
L43.2188 35.4062
Q43.2188 41.6094 39.1406 45
Q35.0625 48.3906 27.6875 48.3906
Q23 48.3906 18.5469 47.2656
Q14.1094 46.1406 10.0156 43.8906
L10.0156 52.2031
Q14.9375 54.1094 19.5781 55.0469
Q24.2188 56 28.6094 56
Q40.4844 56 46.3438 49.8438
Q52.2031 43.7031 52.2031 31.2031" id="BitstreamVeraSans-Roman-61"/>
      <path d="
M18.3125 70.2188
L18.3125 54.6875
L36.8125 54.6875
L36.8125 47.7031
L18.3125 47.7031
L18.3125 18.0156
Q18.3125 11.3281 20.1406 9.42188
Q21.9688 7.51562 27.5938 7.51562
L36.8125 7.51562
L36.8125 0
L27.5938 0
Q17.1875 0 13.2344 3.875
Q9.28125 7.76562 9.28125 18.0156
L9.28125 47.7031
L2.6875 47.7031
L2.6875 54.6875
L9.28125 54.6875
L9.28125 70.2188
z
" id="BitstreamVeraSans-Roman-74"/>
     </defs>
     <g transform="translate(250.56 416.8)scale(0.2 -0.2)">
      <use transform="translate(0.0 0.015625)" xlink:href="#BitstreamVeraSans-Roman-56"/>
      <use transform="translate(68.408203125 0.015625)" xlink:href="#BitstreamVeraSans-Roman-6f"/>
      <use transform="translate(129.58984375 0.015625)" xlink:href="#BitstreamVeraSans-Roman-6c"/>
      <use transform="translate(157.373046875 0.015625)" xlink:href="#BitstreamVeraSans-Roman-74"/>
      <use transform="translate(196.58203125 0.015625)" xlink:href="#BitstreamVeraSans-Roman-61"/>
      <use transform="translate(257.861328125 0.015625)" xlink:href="#BitstreamVeraSans-Roman-67"/>
      <use transform="translate(321.337890625 0.015625)" xlink:href="#BitstreamVeraSans-Roman-65"/>
      <use transform="translate(382.861328125 0.015625)" xlink:href="#BitstreamVeraSans-Roman-20"/>
      <use transform="translate(414.6484375 0.015625)" xlink:href="#BitstreamVeraSans-Roman-28"/>
      <use transform="translate(453.662109375 0.015625)" xlink:href="#Cmr10-a2"/>
      <use transform="translate(536.962890625 0.015625)" xlink:href="#BitstreamVeraSans-Roman-29"/>
     </g>
    </g>
   </g>
   <g id="matplotlib.axis_2">
    <g id="ytick_1">
     <g id="line2d_40">
      <path clip-path="url(#pbec72b4b67)" d="
M46.08 367.2
L570.24 367.2" style="fill:none;stroke:#000000;stroke-dasharray:1.000000,3.000000;stroke-dashoffset:0.0;stroke-width:0.5;"/>
     </g>
     <g id="line2d_41">
      <defs>
       <path d="
M0 0
L4 0" id="m728421d6d4" style="stroke:#000000;stroke-width:0.5;"/>
      </defs>
      <g>
       <use style="stroke:#000000;stroke-width:0.5;" x="46.08" xlink:href="#m728421d6d4" y="367.2"/>
      </g>
     </g>
     <g id="line2d_42">
      <defs>
       <path d="
M0 0
L-4 0" id="mcb0005524f" style="stroke:#000000;stroke-width:0.5;"/>
      </defs>
      <g>
       <use style="stroke:#000000;stroke-width:0.5;" x="570.24" xlink:href="#mcb0005524f" y="367.2"/>
      </g>
     </g>
     <g id="text_8">
      <!-- 0 -->
      <defs>
       <path d="
M31.7812 66.4062
Q24.1719 66.4062 20.3281 58.9062
Q16.5 51.4219 16.5 36.375
Q16.5 21.3906 20.3281 13.8906
Q24.1719 6.39062 31.7812 6.39062
Q39.4531 6.39062 43.2812 13.8906
Q47.125 21.3906 47.125 36.375
Q47.125 51.4219 43.2812 58.9062
Q39.4531 66.4062 31.7812 66.4062
M31.7812 74.2188
Q44.0469 74.2188 50.5156 64.5156
Q56.9844 54.8281 56.9844 36.375
Q56.9844 17.9688 50.5156 8.26562
Q44.0469 -1.42188 31.7812 -1.42188
Q19.5312 -1.42188 13.0625 8.26562
Q6.59375 17.9688 6.59375 36.375
Q6.59375 54.8281 13.0625 64.5156
Q19.5312 74.2188 31.7812 74.2188" id="BitstreamVeraSans-Roman-30"/>
      </defs>
      <g transform="translate(32.001875 372.71875)scale(0.2 -0.2)">
       <use xlink:href="#BitstreamVeraSans-Roman-30"/>
      </g>
     </g>
    </g>
    <g id="ytick_2">
     <g id="line2d_43">
      <path clip-path="url(#pbec72b4b67)" d="
M46.08 309.6
L570.24 309.6" style="fill:none;stroke:#000000;stroke-dasharray:1.000000,3.000000;stroke-dashoffset:0.0;stroke-width:0.5;"/>
     </g>
     <g id="line2d_44">
      <g>
       <use style="stroke:#000000;stroke-width:0.5;" x="46.08" xlink:href="#m728421d6d4" y="309.6"/>
      </g>
     </g>
     <g id="line2d_45">
      <g>
       <use style="stroke:#000000;stroke-width:0.5;" x="570.24" xlink:href="#mcb0005524f" y="309.6"/>
      </g>
     </g>
     <g id="text_9">
      <!-- 1 -->
      <g transform="translate(33.39875 315.11875)scale(0.2 -0.2)">
       <use xlink:href="#BitstreamVeraSans-Roman-31"/>
      </g>
     </g>
    </g>
    <g id="ytick_3">
     <g id="line2d_46">
      <path clip-path="url(#pbec72b4b67)" d="
M46.08 252
L570.24 252" style="fill:none;stroke:#000000;stroke-dasharray:1.000000,3.000000;stroke-dashoffset:0.0;stroke-width:0.5;"/>
     </g>
     <g id="line2d_47">
      <g>
       <use style="stroke:#000000;stroke-width:0.5;" x="46.08" xlink:href="#m728421d6d4" y="252.0"/>
      </g>
     </g>
     <g id="line2d_48">
      <g>
       <use style="stroke:#000000;stroke-width:0.5;" x="570.24" xlink:href="#mcb0005524f" y="252.0"/>
      </g>
     </g>
     <g id="text_10">
      <!-- 2 -->
      <g transform="translate(32.82375 257.51875)scale(0.2 -0.2)">
       <use xlink:href="#BitstreamVeraSans-Roman-32"/>
      </g>
     </g>
    </g>
    <g id="ytick_4">
     <g id="line2d_49">
      <path clip-path="url(#pbec72b4b67)" d="
M46.08 194.4
L570.24 194.4" style="fill:none;stroke:#000000;stroke-dasharray:1.000000,3.000000;stroke-dashoffset:0.0;stroke-width:0.5;"/>
     </g>
     <g id="line2d_50">
      <g>
       <use style="stroke:#000000;stroke-width:0.5;" x="46.08" xlink:href="#m728421d6d4" y="194.4"/>
      </g>
     </g>
     <g id="line2d_51">
      <g>
       <use style="stroke:#000000;stroke-width:0.5;" x="570.24" xlink:href="#mcb0005524f" y="194.4"/>
      </g>
     </g>
     <g id="text_11">
      <!-- 3 -->
      <g transform="translate(32.483125 199.91875)scale(0.2 -0.2)">
       <use xlink:href="#BitstreamVeraSans-Roman-33"/>
      </g>
     </g>
    </g>
    <g id="ytick_5">
     <g id="line2d_52">
      <path clip-path="url(#pbec72b4b67)" d="
M46.08 136.8
L570.24 136.8" style="fill:none;stroke:#000000;stroke-dasharray:1.000000,3.000000;stroke-dashoffset:0.0;stroke-width:0.5;"/>
     </g>
     <g id="line2d_53">
      <g>
       <use style="stroke:#000000;stroke-width:0.5;" x="46.08" xlink:href="#m728421d6d4" y="136.8"/>
      </g>
     </g>
     <g id="line2d_54">
      <g>
       <use style="stroke:#000000;stroke-width:0.5;" x="570.24" xlink:href="#mcb0005524f" y="136.8"/>
      </g>
     </g>
     <g id="text_12">
      <!-- 4 -->
      <defs>
       <path d="
M37.7969 64.3125
L12.8906 25.3906
L37.7969 25.3906
z

M35.2031 72.9062
L47.6094 72.9062
L47.6094 25.3906
L58.0156 25.3906
L58.0156 17.1875
L47.6094 17.1875
L47.6094 0
L37.7969 0
L37.7969 17.1875
L4.89062 17.1875
L4.89062 26.7031
z
" id="BitstreamVeraSans-Roman-34"/>
      </defs>
      <g transform="translate(31.455 142.31875)scale(0.2 -0.2)">
       <use xlink:href="#BitstreamVeraSans-Roman-34"/>
      </g>
     </g>
    </g>
    <g id="ytick_6">
     <g id="line2d_55">
      <path clip-path="url(#pbec72b4b67)" d="
M46.08 79.2
L570.24 79.2" style="fill:none;stroke:#000000;stroke-dasharray:1.000000,3.000000;stroke-dashoffset:0.0;stroke-width:0.5;"/>
     </g>
     <g id="line2d_56">
      <g>
       <use style="stroke:#000000;stroke-width:0.5;" x="46.08" xlink:href="#m728421d6d4" y="79.2"/>
      </g>
     </g>
     <g id="line2d_57">
      <g>
       <use style="stroke:#000000;stroke-width:0.5;" x="570.24" xlink:href="#mcb0005524f" y="79.2"/>
      </g>
     </g>
     <g id="text_13">
      <!-- 5 -->
      <defs>
       <path d="
M10.7969 72.9062
L49.5156 72.9062
L49.5156 64.5938
L19.8281 64.5938
L19.8281 46.7344
Q21.9688 47.4688 24.1094 47.8281
Q26.2656 48.1875 28.4219 48.1875
Q40.625 48.1875 47.75 41.5
Q54.8906 34.8125 54.8906 23.3906
Q54.8906 11.625 47.5625 5.09375
Q40.2344 -1.42188 26.9062 -1.42188
Q22.3125 -1.42188 17.5469 -0.640625
Q12.7969 0.140625 7.71875 1.70312
L7.71875 11.625
Q12.1094 9.23438 16.7969 8.0625
Q21.4844 6.89062 26.7031 6.89062
Q35.1562 6.89062 40.0781 11.3281
Q45.0156 15.7656 45.0156 23.3906
Q45.0156 31 40.0781 35.4375
Q35.1562 39.8906 26.7031 39.8906
Q22.75 39.8906 18.8125 39.0156
Q14.8906 38.1406 10.7969 36.2812
z
" id="BitstreamVeraSans-Roman-35"/>
      </defs>
      <g transform="translate(32.645625 84.71875)scale(0.2 -0.2)">
       <use xlink:href="#BitstreamVeraSans-Roman-35"/>
      </g>
     </g>
    </g>
    <g id="ytick_7">
     <g id="line2d_58">
      <path clip-path="url(#pbec72b4b67)" d="
M46.08 21.6
L570.24 21.6" style="fill:none;stroke:#000000;stroke-dasharray:1.000000,3.000000;stroke-dashoffset:0.0;stroke-width:0.5;"/>
     </g>
     <g id="line2d_59">
      <g>
       <use style="stroke:#000000;stroke-width:0.5;" x="46.08" xlink:href="#m728421d6d4" y="21.6"/>
      </g>
     </g>
     <g id="line2d_60">
      <g>
       <use style="stroke:#000000;stroke-width:0.5;" x="570.24" xlink:href="#mcb0005524f" y="21.6"/>
      </g>
     </g>
     <g id="text_14">
      <!-- 6 -->
      <defs>
       <path d="
M33.0156 40.375
Q26.375 40.375 22.4844 35.8281
Q18.6094 31.2969 18.6094 23.3906
Q18.6094 15.5312 22.4844 10.9531
Q26.375 6.39062 33.0156 6.39062
Q39.6562 6.39062 43.5312 10.9531
Q47.4062 15.5312 47.4062 23.3906
Q47.4062 31.2969 43.5312 35.8281
Q39.6562 40.375 33.0156 40.375
M52.5938 71.2969
L52.5938 62.3125
Q48.875 64.0625 45.0938 64.9844
Q41.3125 65.9219 37.5938 65.9219
Q27.8281 65.9219 22.6719 59.3281
Q17.5312 52.7344 16.7969 39.4062
Q19.6719 43.6562 24.0156 45.9219
Q28.375 48.1875 33.5938 48.1875
Q44.5781 48.1875 50.9531 41.5156
Q57.3281 34.8594 57.3281 23.3906
Q57.3281 12.1562 50.6875 5.35938
Q44.0469 -1.42188 33.0156 -1.42188
Q20.3594 -1.42188 13.6719 8.26562
Q6.98438 17.9688 6.98438 36.375
Q6.98438 53.6562 15.1875 63.9375
Q23.3906 74.2188 37.2031 74.2188
Q40.9219 74.2188 44.7031 73.4844
Q48.4844 72.75 52.5938 71.2969" id="BitstreamVeraSans-Roman-36"/>
      </defs>
      <g transform="translate(32.01125 27.11875)scale(0.2 -0.2)">
       <use xlink:href="#BitstreamVeraSans-Roman-36"/>
      </g>
     </g>
    </g>
    <g id="text_15">
     <!-- Current (2e$\Delta$/$\hbar$) -->
     <defs>
      <path d="
M46.5 11.7969
L47.7969 10.5
Q43.2031 4 40.0938 1.54688
Q37 -0.90625 33.2031 -0.90625
Q31.2031 -0.90625 30 0.25
Q28.7969 1.40625 28.7969 3.29688
Q28.7969 5 30.7969 12.5
L36.2969 33.2031
Q37 36 37 36.5
Q37 39 34.2031 39
Q31.5 39 27.25 35
Q23 31 19 25
Q15.9062 20.2031 14.0938 15.6406
Q12.2969 11.0938 9.40625 0
L1.90625 0
L15.0938 50
L8.79688 50
L10.2969 55.4062
L16.5 55.4062
Q17.7969 60.4062 17.7969 61.5938
Q17.7969 62.7969 16.5 63.4375
Q15.2031 64.0938 13.7031 64.0938
L11 64.0938
L11 65.5938
Q18.5938 66.5 26.7031 68.2969
L27.4062 67.7031
L24.0938 55.4062
L40 55.4062
L38.5 50
L22.5938 50
L15.2969 23
Q28.2969 44.0938 38.2969 44.0938
Q41.5938 44.0938 43.1875 42.25
Q44.7969 40.4062 44.7969 37.4062
Q44.7969 33.0938 40 18.0938
Q36.7031 8 36.7031 5.59375
Q36.7031 3.79688 38.2969 3.79688
Q39.5 3.79688 40.9531 5.25
Q42.4062 6.70312 46.5 11.7969" id="STIXGeneral-Italic-127"/>
      <path d="
M54.8906 33.0156
L54.8906 0
L45.9062 0
L45.9062 32.7188
Q45.9062 40.4844 42.875 44.3281
Q39.8438 48.1875 33.7969 48.1875
Q26.5156 48.1875 22.3125 43.5469
Q18.1094 38.9219 18.1094 30.9062
L18.1094 0
L9.07812 0
L9.07812 54.6875
L18.1094 54.6875
L18.1094 46.1875
Q21.3438 51.125 25.7031 53.5625
Q30.0781 56 35.7969 56
Q45.2188 56 50.0469 50.1719
Q54.8906 44.3438 54.8906 33.0156" id="BitstreamVeraSans-Roman-6e"/>
      <path d="
M64.4062 67.2812
L64.4062 56.8906
Q59.4219 61.5312 53.7812 63.8125
Q48.1406 66.1094 41.7969 66.1094
Q29.2969 66.1094 22.6562 58.4688
Q16.0156 50.8281 16.0156 36.375
Q16.0156 21.9688 22.6562 14.3281
Q29.2969 6.6875 41.7969 6.6875
Q48.1406 6.6875 53.7812 8.98438
Q59.4219 11.2812 64.4062 15.9219
L64.4062 5.60938
Q59.2344 2.09375 53.4375 0.328125
Q47.6562 -1.42188 41.2188 -1.42188
Q24.6562 -1.42188 15.125 8.70312
Q5.60938 18.8438 5.60938 36.375
Q5.60938 53.9531 15.125 64.0781
Q24.6562 74.2188 41.2188 74.2188
Q47.75 74.2188 53.5312 72.4844
Q59.3281 70.75 64.4062 67.2812" id="BitstreamVeraSans-Roman-43"/>
      <path d="
M25.3906 72.9062
L33.6875 72.9062
L8.29688 -9.28125
L0 -9.28125
z
" id="BitstreamVeraSans-Roman-2f"/>
      <path d="
M8.5 21.5781
L8.5 54.6875
L17.4844 54.6875
L17.4844 21.9219
Q17.4844 14.1562 20.5 10.2656
Q23.5312 6.39062 29.5938 6.39062
Q36.8594 6.39062 41.0781 11.0312
Q45.3125 15.6719 45.3125 23.6875
L45.3125 54.6875
L54.2969 54.6875
L54.2969 0
L45.3125 0
L45.3125 8.40625
Q42.0469 3.42188 37.7188 1
Q33.4062 -1.42188 27.6875 -1.42188
Q18.2656 -1.42188 13.375 4.4375
Q8.5 10.2969 8.5 21.5781" id="BitstreamVeraSans-Roman-75"/>
      <path d="
M41.1094 46.2969
Q39.5938 47.1719 37.8125 47.5781
Q36.0312 48 33.8906 48
Q26.2656 48 22.1875 43.0469
Q18.1094 38.0938 18.1094 28.8125
L18.1094 0
L9.07812 0
L9.07812 54.6875
L18.1094 54.6875
L18.1094 46.1875
Q20.9531 51.1719 25.4844 53.5781
Q30.0312 56 36.5312 56
Q37.4531 56 38.5781 55.875
Q39.7031 55.7656 41.0625 55.5156
z
" id="BitstreamVeraSans-Roman-72"/>
     </defs>
     <g transform="translate(22.295625 272.6)rotate(-90.0)scale(0.2 -0.2)">
      <use transform="translate(0.0 0.125)" xlink:href="#BitstreamVeraSans-Roman-43"/>
      <use transform="translate(69.82421875 0.125)" xlink:href="#BitstreamVeraSans-Roman-75"/>
      <use transform="translate(133.203125 0.125)" xlink:href="#BitstreamVeraSans-Roman-72"/>
      <use transform="translate(174.31640625 0.125)" xlink:href="#BitstreamVeraSans-Roman-72"/>
      <use transform="translate(215.4296875 0.125)" xlink:href="#BitstreamVeraSans-Roman-65"/>
      <use transform="translate(276.953125 0.125)" xlink:href="#BitstreamVeraSans-Roman-6e"/>
      <use transform="translate(340.33203125 0.125)" xlink:href="#BitstreamVeraSans-Roman-74"/>
      <use transform="translate(379.541015625 0.125)" xlink:href="#BitstreamVeraSans-Roman-20"/>
      <use transform="translate(411.328125 0.125)" xlink:href="#BitstreamVeraSans-Roman-28"/>
      <use transform="translate(450.341796875 0.125)" xlink:href="#BitstreamVeraSans-Roman-32"/>
      <use transform="translate(513.96484375 0.125)" xlink:href="#BitstreamVeraSans-Roman-65"/>
      <use transform="translate(575.48828125 0.125)" xlink:href="#Cmr10-a2"/>
      <use transform="translate(658.7890625 0.125)" xlink:href="#BitstreamVeraSans-Roman-2f"/>
      <use transform="translate(692.48046875 0.125)" xlink:href="#STIXGeneral-Italic-127"/>
      <use transform="translate(742.480453491 0.125)" xlink:href="#BitstreamVeraSans-Roman-29"/>
     </g>
    </g>
   </g>
   <g id="patch_3">
    <path d="
M46.08 21.6
L570.24 21.6" style="fill:none;stroke:#000000;"/>
   </g>
   <g id="patch_4">
    <path d="
M570.24 367.2
L570.24 21.6" style="fill:none;stroke:#000000;"/>
   </g>
   <g id="patch_5">
    <path d="
M46.08 367.2
L570.24 367.2" style="fill:none;stroke:#000000;"/>
   </g>
   <g id="patch_6">
    <path d="
M46.08 367.2
L46.08 21.6" style="fill:none;stroke:#000000;"/>
   </g>
   <g id="text_16">
    <!-- 0.1 -->
    <defs>
     <path d="
M10.6875 12.4062
L21 12.4062
L21 0
L10.6875 0
z
" id="BitstreamVeraSans-Roman-2e"/>
    </defs>
    <g transform="translate(525.312 361.236929069)scale(0.12 -0.12)">
     <use xlink:href="#BitstreamVeraSans-Roman-30"/>
     <use x="63.623046875" xlink:href="#BitstreamVeraSans-Roman-2e"/>
     <use x="95.41015625" xlink:href="#BitstreamVeraSans-Roman-31"/>
    </g>
   </g>
   <g id="text_17">
    <!-- 0.2 -->
    <g transform="translate(525.312 342.624131078)scale(0.12 -0.12)">
     <use xlink:href="#BitstreamVeraSans-Roman-30"/>
     <use x="63.623046875" xlink:href="#BitstreamVeraSans-Roman-2e"/>
     <use x="95.41015625" xlink:href="#BitstreamVeraSans-Roman-32"/>
    </g>
   </g>
   <g id="text_18">
    <!-- 0.3 -->
    <g transform="translate(525.312 321.820043328)scale(0.12 -0.12)">
     <use xlink:href="#BitstreamVeraSans-Roman-30"/>
     <use x="63.623046875" xlink:href="#BitstreamVeraSans-Roman-2e"/>
     <use x="95.41015625" xlink:href="#BitstreamVeraSans-Roman-33"/>
    </g>
   </g>
   <g id="text_19">
    <!-- 0.4 -->
    <g transform="translate(525.312 298.304083008)scale(0.12 -0.12)">
     <use xlink:href="#BitstreamVeraSans-Roman-30"/>
     <use x="63.623046875" xlink:href="#BitstreamVeraSans-Roman-2e"/>
     <use x="95.41015625" xlink:href="#BitstreamVeraSans-Roman-34"/>
    </g>
   </g>
   <g id="text_20">
    <!-- 0.5 -->
    <g transform="translate(525.312 271.46331648)scale(0.12 -0.12)">
     <use xlink:href="#BitstreamVeraSans-Roman-30"/>
     <use x="63.623046875" xlink:href="#BitstreamVeraSans-Roman-2e"/>
     <use x="95.41015625" xlink:href="#BitstreamVeraSans-Roman-35"/>
    </g>
   </g>
   <g id="text_21">
    <!-- 0.6 -->
    <g transform="translate(525.312 240.547961664)scale(0.12 -0.12)">
     <use xlink:href="#BitstreamVeraSans-Roman-30"/>
     <use x="63.623046875" xlink:href="#BitstreamVeraSans-Roman-2e"/>
     <use x="95.41015625" xlink:href="#BitstreamVeraSans-Roman-36"/>
    </g>
   </g>
   <g id="text_22">
    <!-- 0.7 -->
    <defs>
     <path d="
M8.20312 72.9062
L55.0781 72.9062
L55.0781 68.7031
L28.6094 0
L18.3125 0
L43.2188 64.5938
L8.20312 64.5938
z
" id="BitstreamVeraSans-Roman-37"/>
    </defs>
    <g transform="translate(525.312 204.614868672)scale(0.12 -0.12)">
     <use xlink:href="#BitstreamVeraSans-Roman-30"/>
     <use x="63.623046875" xlink:href="#BitstreamVeraSans-Roman-2e"/>
     <use x="95.41015625" xlink:href="#BitstreamVeraSans-Roman-37"/>
    </g>
   </g>
   <g id="text_23">
    <!-- 0.8 -->
    <defs>
     <path d="
M31.7812 34.625
Q24.75 34.625 20.7188 30.8594
Q16.7031 27.0938 16.7031 20.5156
Q16.7031 13.9219 20.7188 10.1562
Q24.75 6.39062 31.7812 6.39062
Q38.8125 6.39062 42.8594 10.1719
Q46.9219 13.9688 46.9219 20.5156
Q46.9219 27.0938 42.8906 30.8594
Q38.875 34.625 31.7812 34.625
M21.9219 38.8125
Q15.5781 40.375 12.0312 44.7188
Q8.5 49.0781 8.5 55.3281
Q8.5 64.0625 14.7188 69.1406
Q20.9531 74.2188 31.7812 74.2188
Q42.6719 74.2188 48.875 69.1406
Q55.0781 64.0625 55.0781 55.3281
Q55.0781 49.0781 51.5312 44.7188
Q48 40.375 41.7031 38.8125
Q48.8281 37.1562 52.7969 32.3125
Q56.7812 27.4844 56.7812 20.5156
Q56.7812 9.90625 50.3125 4.23438
Q43.8438 -1.42188 31.7812 -1.42188
Q19.7344 -1.42188 13.25 4.23438
Q6.78125 9.90625 6.78125 20.5156
Q6.78125 27.4844 10.7812 32.3125
Q14.7969 37.1562 21.9219 38.8125
M18.3125 54.3906
Q18.3125 48.7344 21.8438 45.5625
Q25.3906 42.3906 31.7812 42.3906
Q38.1406 42.3906 41.7188 45.5625
Q45.3125 48.7344 45.3125 54.3906
Q45.3125 60.0625 41.7188 63.2344
Q38.1406 66.4062 31.7812 66.4062
Q25.3906 66.4062 21.8438 63.2344
Q18.3125 60.0625 18.3125 54.3906" id="BitstreamVeraSans-Roman-38"/>
    </defs>
    <g transform="translate(525.312 162.448490304)scale(0.12 -0.12)">
     <use xlink:href="#BitstreamVeraSans-Roman-30"/>
     <use x="63.623046875" xlink:href="#BitstreamVeraSans-Roman-2e"/>
     <use x="95.41015625" xlink:href="#BitstreamVeraSans-Roman-38"/>
    </g>
   </g>
   <g id="text_24">
    <!-- 0.9 -->
    <defs>
     <path d="
M10.9844 1.51562
L10.9844 10.5
Q14.7031 8.73438 18.5 7.8125
Q22.3125 6.89062 25.9844 6.89062
Q35.75 6.89062 40.8906 13.4531
Q46.0469 20.0156 46.7812 33.4062
Q43.9531 29.2031 39.5938 26.9531
Q35.25 24.7031 29.9844 24.7031
Q19.0469 24.7031 12.6719 31.3125
Q6.29688 37.9375 6.29688 49.4219
Q6.29688 60.6406 12.9375 67.4219
Q19.5781 74.2188 30.6094 74.2188
Q43.2656 74.2188 49.9219 64.5156
Q56.5938 54.8281 56.5938 36.375
Q56.5938 19.1406 48.4062 8.85938
Q40.2344 -1.42188 26.4219 -1.42188
Q22.7031 -1.42188 18.8906 -0.6875
Q15.0938 0.046875 10.9844 1.51562
M30.6094 32.4219
Q37.25 32.4219 41.125 36.9531
Q45.0156 41.5 45.0156 49.4219
Q45.0156 57.2812 41.125 61.8438
Q37.25 66.4062 30.6094 66.4062
Q23.9688 66.4062 20.0938 61.8438
Q16.2188 57.2812 16.2188 49.4219
Q16.2188 41.5 20.0938 36.9531
Q23.9688 32.4219 30.6094 32.4219" id="BitstreamVeraSans-Roman-39"/>
    </defs>
    <g transform="translate(525.312 112.444342272)scale(0.12 -0.12)">
     <use xlink:href="#BitstreamVeraSans-Roman-30"/>
     <use x="63.623046875" xlink:href="#BitstreamVeraSans-Roman-2e"/>
     <use x="95.41015625" xlink:href="#BitstreamVeraSans-Roman-39"/>
    </g>
   </g>
   <g id="text_25">
    <!-- 1.0 -->
    <g transform="translate(525.312 53.759758464)scale(0.12 -0.12)">
     <use xlink:href="#BitstreamVeraSans-Roman-31"/>
     <use x="63.623046875" xlink:href="#BitstreamVeraSans-Roman-2e"/>
     <use x="95.41015625" xlink:href="#BitstreamVeraSans-Roman-30"/>
    </g>
   </g>
   <g id="text_26">
    <!-- Theoretical I-V Curves MAR -->
    <defs>
     <path d="
M9.8125 72.9062
L24.5156 72.9062
L43.1094 23.2969
L61.8125 72.9062
L76.5156 72.9062
L76.5156 0
L66.8906 0
L66.8906 64.0156
L48.0938 14.0156
L38.1875 14.0156
L19.3906 64.0156
L19.3906 0
L9.8125 0
z
" id="BitstreamVeraSans-Roman-4d"/>
     <path d="
M34.1875 63.1875
L20.7969 26.9062
L47.6094 26.9062
z

M28.6094 72.9062
L39.7969 72.9062
L67.5781 0
L57.3281 0
L50.6875 18.7031
L17.8281 18.7031
L11.1875 0
L0.78125 0
z
" id="BitstreamVeraSans-Roman-41"/>
     <path d="
M44.3906 34.1875
Q47.5625 33.1094 50.5625 29.5938
Q53.5625 26.0781 56.5938 19.9219
L66.6094 0
L56 0
L46.6875 18.7031
Q43.0625 26.0312 39.6719 28.4219
Q36.2812 30.8125 30.4219 30.8125
L19.6719 30.8125
L19.6719 0
L9.8125 0
L9.8125 72.9062
L32.0781 72.9062
Q44.5781 72.9062 50.7344 67.6719
Q56.8906 62.4531 56.8906 51.9062
Q56.8906 45.0156 53.6875 40.4688
Q50.4844 35.9375 44.3906 34.1875
M19.6719 64.7969
L19.6719 38.9219
L32.0781 38.9219
Q39.2031 38.9219 42.8438 42.2188
Q46.4844 45.5156 46.4844 51.9062
Q46.4844 58.2969 42.8438 61.5469
Q39.2031 64.7969 32.0781 64.7969
z
" id="BitstreamVeraSans-Roman-52"/>
     <path d="
M9.42188 54.6875
L18.4062 54.6875
L18.4062 0
L9.42188 0
z

M9.42188 75.9844
L18.4062 75.9844
L18.4062 64.5938
L9.42188 64.5938
z
" id="BitstreamVeraSans-Roman-69"/>
     <path d="
M54.8906 33.0156
L54.8906 0
L45.9062 0
L45.9062 32.7188
Q45.9062 40.4844 42.875 44.3281
Q39.8438 48.1875 33.7969 48.1875
Q26.5156 48.1875 22.3125 43.5469
Q18.1094 38.9219 18.1094 30.9062
L18.1094 0
L9.07812 0
L9.07812 75.9844
L18.1094 75.9844
L18.1094 46.1875
Q21.3438 51.125 25.7031 53.5625
Q30.0781 56 35.7969 56
Q45.2188 56 50.0469 50.1719
Q54.8906 44.3438 54.8906 33.0156" id="BitstreamVeraSans-Roman-68"/>
     <path d="
M48.7812 52.5938
L48.7812 44.1875
Q44.9688 46.2969 41.1406 47.3438
Q37.3125 48.3906 33.4062 48.3906
Q24.6562 48.3906 19.8125 42.8438
Q14.9844 37.3125 14.9844 27.2969
Q14.9844 17.2812 19.8125 11.7344
Q24.6562 6.20312 33.4062 6.20312
Q37.3125 6.20312 41.1406 7.25
Q44.9688 8.29688 48.7812 10.4062
L48.7812 2.09375
Q45.0156 0.34375 40.9844 -0.53125
Q36.9688 -1.42188 32.4219 -1.42188
Q20.0625 -1.42188 12.7812 6.34375
Q5.51562 14.1094 5.51562 27.2969
Q5.51562 40.6719 12.8594 48.3281
Q20.2188 56 33.0156 56
Q37.1562 56 41.1094 55.1406
Q45.0625 54.2969 48.7812 52.5938" id="BitstreamVeraSans-Roman-63"/>
     <path d="
M2.98438 54.6875
L12.5 54.6875
L29.5938 8.79688
L46.6875 54.6875
L56.2031 54.6875
L35.6875 0
L23.4844 0
z
" id="BitstreamVeraSans-Roman-76"/>
     <path d="
M-0.296875 72.9062
L61.375 72.9062
L61.375 64.5938
L35.5 64.5938
L35.5 0
L25.5938 0
L25.5938 64.5938
L-0.296875 64.5938
z
" id="BitstreamVeraSans-Roman-54"/>
     <path d="
M44.2812 53.0781
L44.2812 44.5781
Q40.4844 46.5312 36.375 47.5
Q32.2812 48.4844 27.875 48.4844
Q21.1875 48.4844 17.8438 46.4375
Q14.5 44.3906 14.5 40.2812
Q14.5 37.1562 16.8906 35.375
Q19.2812 33.5938 26.5156 31.9844
L29.5938 31.2969
Q39.1562 29.25 43.1875 25.5156
Q47.2188 21.7812 47.2188 15.0938
Q47.2188 7.46875 41.1875 3.01562
Q35.1562 -1.42188 24.6094 -1.42188
Q20.2188 -1.42188 15.4531 -0.5625
Q10.6875 0.296875 5.42188 2
L5.42188 11.2812
Q10.4062 8.6875 15.2344 7.39062
Q20.0625 6.10938 24.8125 6.10938
Q31.1562 6.10938 34.5625 8.28125
Q37.9844 10.4531 37.9844 14.4062
Q37.9844 18.0625 35.5156 20.0156
Q33.0625 21.9688 24.7031 23.7812
L21.5781 24.5156
Q13.2344 26.2656 9.51562 29.9062
Q5.8125 33.5469 5.8125 39.8906
Q5.8125 47.6094 11.2812 51.7969
Q16.75 56 26.8125 56
Q31.7812 56 36.1719 55.2656
Q40.5781 54.5469 44.2812 53.0781" id="BitstreamVeraSans-Roman-73"/>
     <path d="
M9.8125 72.9062
L19.6719 72.9062
L19.6719 0
L9.8125 0
z
" id="BitstreamVeraSans-Roman-49"/>
     <path d="
M4.89062 31.3906
L31.2031 31.3906
L31.2031 23.3906
L4.89062 23.3906
z
" id="BitstreamVeraSans-Roman-2d"/>
    </defs>
    <g transform="translate(173.0834375 16.6)scale(0.2 -0.2)">
     <use xlink:href="#BitstreamVeraSans-Roman-54"/>
     <use x="61.083984375" xlink:href="#BitstreamVeraSans-Roman-68"/>
     <use x="124.462890625" xlink:href="#BitstreamVeraSans-Roman-65"/>
     <use x="185.986328125" xlink:href="#BitstreamVeraSans-Roman-6f"/>
     <use x="247.16796875" xlink:href="#BitstreamVeraSans-Roman-72"/>
     <use x="286.03125" xlink:href="#BitstreamVeraSans-Roman-65"/>
     <use x="347.5546875" xlink:href="#BitstreamVeraSans-Roman-74"/>
     <use x="386.763671875" xlink:href="#BitstreamVeraSans-Roman-69"/>
     <use x="414.546875" xlink:href="#BitstreamVeraSans-Roman-63"/>
     <use x="469.52734375" xlink:href="#BitstreamVeraSans-Roman-61"/>
     <use x="530.806640625" xlink:href="#BitstreamVeraSans-Roman-6c"/>
     <use x="558.58984375" xlink:href="#BitstreamVeraSans-Roman-20"/>
     <use x="590.376953125" xlink:href="#BitstreamVeraSans-Roman-49"/>
     <use x="619.869140625" xlink:href="#BitstreamVeraSans-Roman-2d"/>
     <use x="650.078125" xlink:href="#BitstreamVeraSans-Roman-56"/>
     <use x="718.486328125" xlink:href="#BitstreamVeraSans-Roman-20"/>
     <use x="750.2734375" xlink:href="#BitstreamVeraSans-Roman-43"/>
     <use x="820.09765625" xlink:href="#BitstreamVeraSans-Roman-75"/>
     <use x="883.4765625" xlink:href="#BitstreamVeraSans-Roman-72"/>
     <use x="924.58984375" xlink:href="#BitstreamVeraSans-Roman-76"/>
     <use x="983.76953125" xlink:href="#BitstreamVeraSans-Roman-65"/>
     <use x="1045.29296875" xlink:href="#BitstreamVeraSans-Roman-73"/>
     <use x="1097.39257812" xlink:href="#BitstreamVeraSans-Roman-20"/>
     <use x="1129.1796875" xlink:href="#BitstreamVeraSans-Roman-4d"/>
     <use x="1215.45898438" xlink:href="#BitstreamVeraSans-Roman-41"/>
     <use x="1283.8671875" xlink:href="#BitstreamVeraSans-Roman-52"/>
    </g>
   </g>
   <g id="legend_1">
    <g id="patch_7">
     <path d="
M56.08 106.528
L175.946 106.528
L175.946 31.6
L56.08 31.6
L56.08 106.528
z
" style="fill:#4c4c4c;opacity:0.5;stroke:#4c4c4c;"/>
    </g>
    <g id="patch_8">
     <path d="
M54.08 104.528
L173.946 104.528
L173.946 29.6
L54.08 29.6
L54.08 104.528
z
" style="fill:#ffffff;stroke:#000000;"/>
    </g>
    <g id="text_27">
     <!-- Transmission -->
     <defs>
      <path d="
M52 44.1875
Q55.375 50.25 60.0625 53.125
Q64.75 56 71.0938 56
Q79.6406 56 84.2812 50.0156
Q88.9219 44.0469 88.9219 33.0156
L88.9219 0
L79.8906 0
L79.8906 32.7188
Q79.8906 40.5781 77.0938 44.375
Q74.3125 48.1875 68.6094 48.1875
Q61.625 48.1875 57.5625 43.5469
Q53.5156 38.9219 53.5156 30.9062
L53.5156 0
L44.4844 0
L44.4844 32.7188
Q44.4844 40.625 41.7031 44.4062
Q38.9219 48.1875 33.1094 48.1875
Q26.2188 48.1875 22.1562 43.5312
Q18.1094 38.875 18.1094 30.9062
L18.1094 0
L9.07812 0
L9.07812 54.6875
L18.1094 54.6875
L18.1094 46.1875
Q21.1875 51.2188 25.4844 53.6094
Q29.7812 56 35.6875 56
Q41.6562 56 45.8281 52.9688
Q50 49.9531 52 44.1875" id="BitstreamVeraSans-Roman-6d"/>
     </defs>
     <g transform="translate(62.8253125 48.1575)scale(0.16 -0.16)">
      <use xlink:href="#BitstreamVeraSans-Roman-54"/>
      <use x="46.333984375" xlink:href="#BitstreamVeraSans-Roman-72"/>
      <use x="87.447265625" xlink:href="#BitstreamVeraSans-Roman-61"/>
      <use x="148.7265625" xlink:href="#BitstreamVeraSans-Roman-6e"/>
      <use x="212.10546875" xlink:href="#BitstreamVeraSans-Roman-73"/>
      <use x="264.205078125" xlink:href="#BitstreamVeraSans-Roman-6d"/>
      <use x="361.6171875" xlink:href="#BitstreamVeraSans-Roman-69"/>
      <use x="389.400390625" xlink:href="#BitstreamVeraSans-Roman-73"/>
      <use x="441.5" xlink:href="#BitstreamVeraSans-Roman-73"/>
      <use x="493.599609375" xlink:href="#BitstreamVeraSans-Roman-69"/>
      <use x="521.3828125" xlink:href="#BitstreamVeraSans-Roman-6f"/>
      <use x="582.564453125" xlink:href="#BitstreamVeraSans-Roman-6e"/>
     </g>
    </g>
    <g id="line2d_61">
     <path d="
M65.28 66.0425
L87.68 66.0425" style="fill:none;stroke:#0000ff;stroke-dasharray:6.000000,6.000000;stroke-dashoffset:0.0;stroke-width:4;"/>
    </g>
    <g id="line2d_62"/>
    <g id="text_28">
     <!-- 0.2+0.3 -->
     <defs>
      <path d="
M46 62.7031
L46 35.5
L73.1875 35.5
L73.1875 27.2031
L46 27.2031
L46 0
L37.7969 0
L37.7969 27.2031
L10.5938 27.2031
L10.5938 35.5
L37.7969 35.5
L37.7969 62.7031
z
" id="BitstreamVeraSans-Roman-2b"/>
     </defs>
     <g transform="translate(105.28 71.6425)scale(0.16 -0.16)">
      <use xlink:href="#BitstreamVeraSans-Roman-30"/>
      <use x="63.623046875" xlink:href="#BitstreamVeraSans-Roman-2e"/>
      <use x="95.41015625" xlink:href="#BitstreamVeraSans-Roman-32"/>
      <use x="159.033203125" xlink:href="#BitstreamVeraSans-Roman-2b"/>
      <use x="242.822265625" xlink:href="#BitstreamVeraSans-Roman-30"/>
      <use x="306.4453125" xlink:href="#BitstreamVeraSans-Roman-2e"/>
      <use x="338.232421875" xlink:href="#BitstreamVeraSans-Roman-33"/>
     </g>
    </g>
    <g id="line2d_63">
     <path d="
M65.28 89.5275
L87.68 89.5275" style="fill:none;stroke:#008000;stroke-dasharray:6.000000,6.000000;stroke-dashoffset:0.0;stroke-width:4;"/>
    </g>
    <g id="line2d_64"/>
    <g id="text_29">
     <!-- 0.4+0.6 -->
     <g transform="translate(105.28 95.1275)scale(0.16 -0.16)">
      <use xlink:href="#BitstreamVeraSans-Roman-30"/>
      <use x="63.623046875" xlink:href="#BitstreamVeraSans-Roman-2e"/>
      <use x="95.41015625" xlink:href="#BitstreamVeraSans-Roman-34"/>
      <use x="159.033203125" xlink:href="#BitstreamVeraSans-Roman-2b"/>
      <use x="242.822265625" xlink:href="#BitstreamVeraSans-Roman-30"/>
      <use x="306.4453125" xlink:href="#BitstreamVeraSans-Roman-2e"/>
      <use x="338.232421875" xlink:href="#BitstreamVeraSans-Roman-36"/>
     </g>
    </g>
   </g>
  </g>
 </g>
 <defs>
  <clipPath id="pbec72b4b67">
   <rect height="345.6" width="524.16" x="46.08" y="21.6"/>
  </clipPath>
 </defs>
</svg>
